<svg width="401" height="200" viewBox="0 0 401 200" fill="none" xmlns="http://www.w3.org/2000/svg">
<g clip-path="url(#clip0_25_3966)">
<mask id="mask0_25_3966" style="mask-type:alpha" maskUnits="userSpaceOnUse" x="1" y="0" width="400" height="200">
<rect x="1" y="148" width="400" height="52" fill="url(#paint0_linear_25_3966)"/>
<rect x="1" width="162" height="200" fill="url(#paint1_linear_25_3966)"/>
<rect x="163" width="238" height="148" fill="white"/>
</mask>
<g mask="url(#mask0_25_3966)">
<rect x="-7.5" y="0.5" width="408" height="207" rx="7.5" stroke="white" stroke-opacity="0.15"/>
<path d="M293.833 30.905V27.9167C293.833 25.2358 292.012 22.9775 289.546 22.2983C289.302 21.6833 288.705 21.25 288 21.25C287.295 21.25 286.698 21.6833 286.454 22.2983C283.988 22.9783 282.167 25.2358 282.167 27.9167V30.905L280.744 32.3275C280.587 32.4833 280.5 32.695 280.5 32.9167V34.5833C280.5 35.0442 280.873 35.4167 281.333 35.4167H294.667C295.127 35.4167 295.5 35.0442 295.5 34.5833V32.9167C295.5 32.695 295.413 32.4833 295.256 32.3275L293.833 30.905ZM288 38.75C289.092 38.75 290.006 38.055 290.348 37.0833H285.652C285.994 38.055 286.907 38.75 288 38.75Z" stroke="white" stroke-opacity="0.15"/>
<rect x="184.5" y="13.5" width="79" height="31" rx="5.5" stroke="white" stroke-opacity="0.15"/>
<path d="M203.213 33V24.5449H206.266C207.105 24.5449 207.822 24.7109 208.416 25.043C209.01 25.375 209.463 25.8535 209.775 26.4785C210.092 27.1035 210.25 27.8594 210.25 28.7461V28.7578C210.25 29.6523 210.092 30.416 209.775 31.0488C209.463 31.6816 209.01 32.166 208.416 32.502C207.826 32.834 207.109 33 206.266 33H203.213ZM204.525 31.8633H206.119C206.709 31.8633 207.211 31.7422 207.625 31.5C208.043 31.2578 208.359 30.9062 208.574 30.4453C208.793 29.9844 208.902 29.4277 208.902 28.7754V28.7637C208.902 28.1152 208.791 27.5605 208.568 27.0996C208.35 26.6387 208.033 26.2871 207.619 26.0449C207.205 25.8027 206.705 25.6816 206.119 25.6816H204.525V31.8633ZM214.551 33.123C213.93 33.123 213.396 32.9902 212.951 32.7246C212.506 32.4551 212.162 32.0742 211.92 31.582C211.682 31.0898 211.562 30.5078 211.562 29.8359V29.8301C211.562 29.166 211.682 28.5859 211.92 28.0898C212.162 27.5938 212.502 27.207 212.939 26.9297C213.381 26.6523 213.896 26.5137 214.486 26.5137C215.08 26.5137 215.59 26.6465 216.016 26.9121C216.445 27.1777 216.775 27.5508 217.006 28.0312C217.236 28.5078 217.352 29.0664 217.352 29.707V30.1523H212.207V29.2441H216.719L216.109 30.0879V29.5781C216.109 29.125 216.039 28.75 215.898 28.4531C215.762 28.1523 215.572 27.9277 215.33 27.7793C215.088 27.6309 214.809 27.5566 214.492 27.5566C214.176 27.5566 213.893 27.6348 213.643 27.791C213.396 27.9434 213.201 28.1699 213.057 28.4707C212.916 28.7715 212.846 29.1406 212.846 29.5781V30.0879C212.846 30.5059 212.916 30.8633 213.057 31.1602C213.197 31.457 213.396 31.6836 213.654 31.8398C213.916 31.9961 214.225 32.0742 214.58 32.0742C214.854 32.0742 215.088 32.0371 215.283 31.9629C215.482 31.8848 215.645 31.7891 215.77 31.6758C215.898 31.5625 215.986 31.4512 216.033 31.3418L216.057 31.2949H217.287L217.275 31.3477C217.221 31.5586 217.125 31.7695 216.988 31.9805C216.852 32.1875 216.67 32.377 216.443 32.5488C216.221 32.7207 215.951 32.8594 215.635 32.9648C215.322 33.0703 214.961 33.123 214.551 33.123ZM218.863 35.1211V26.6367H220.135V27.6387H220.234C220.355 27.4043 220.512 27.2051 220.703 27.041C220.898 26.877 221.121 26.75 221.371 26.6602C221.621 26.5703 221.895 26.5254 222.191 26.5254C222.727 26.5254 223.191 26.6621 223.586 26.9355C223.98 27.2051 224.285 27.5859 224.5 28.0781C224.719 28.5664 224.828 29.1445 224.828 29.8125V29.8242C224.828 30.4961 224.721 31.0781 224.506 31.5703C224.291 32.0586 223.986 32.4375 223.592 32.707C223.197 32.9727 222.73 33.1055 222.191 33.1055C221.898 33.1055 221.625 33.0605 221.371 32.9707C221.117 32.877 220.893 32.748 220.697 32.584C220.502 32.4199 220.348 32.2227 220.234 31.9922H220.135V35.1211H218.863ZM221.828 32.0156C222.184 32.0156 222.488 31.9277 222.742 31.752C222.996 31.5762 223.189 31.3242 223.322 30.9961C223.459 30.668 223.527 30.2773 223.527 29.8242V29.8125C223.527 29.3555 223.459 28.9629 223.322 28.6348C223.189 28.3066 222.996 28.0547 222.742 27.8789C222.488 27.7031 222.184 27.6152 221.828 27.6152C221.477 27.6152 221.172 27.7051 220.914 27.8848C220.656 28.0605 220.459 28.3125 220.322 28.6406C220.186 28.9648 220.117 29.3555 220.117 29.8125V29.8242C220.117 30.2734 220.186 30.6621 220.322 30.9902C220.459 31.3184 220.656 31.5723 220.914 31.752C221.172 31.9277 221.477 32.0156 221.828 32.0156ZM229.047 33.123C228.426 33.123 227.889 32.9902 227.436 32.7246C226.986 32.459 226.641 32.0801 226.398 31.5879C226.156 31.0918 226.035 30.5039 226.035 29.8242V29.8125C226.035 29.1289 226.156 28.541 226.398 28.0488C226.645 27.5566 226.992 27.1777 227.441 26.9121C227.895 26.6465 228.43 26.5137 229.047 26.5137C229.668 26.5137 230.203 26.6465 230.652 26.9121C231.102 27.1738 231.447 27.5527 231.689 28.0488C231.936 28.541 232.059 29.1289 232.059 29.8125V29.8242C232.059 30.5039 231.936 31.0918 231.689 31.5879C231.447 32.0801 231.102 32.459 230.652 32.7246C230.207 32.9902 229.672 33.123 229.047 33.123ZM229.047 32.0566C229.41 32.0566 229.719 31.9688 229.973 31.793C230.227 31.6133 230.42 31.3574 230.553 31.0254C230.686 30.6934 230.752 30.293 230.752 29.8242V29.8125C230.752 29.3398 230.686 28.9375 230.553 28.6055C230.42 28.2734 230.227 28.0195 229.973 27.8438C229.719 27.6641 229.41 27.5742 229.047 27.5742C228.684 27.5742 228.375 27.6641 228.121 27.8438C227.867 28.0195 227.672 28.2734 227.535 28.6055C227.402 28.9375 227.336 29.3398 227.336 29.8125V29.8242C227.336 30.293 227.402 30.6934 227.535 31.0254C227.672 31.3574 227.867 31.6133 228.121 31.793C228.375 31.9688 228.684 32.0566 229.047 32.0566ZM235.885 33.123C235.373 33.123 234.928 33.0488 234.549 32.9004C234.17 32.748 233.869 32.5391 233.646 32.2734C233.424 32.0039 233.293 31.6914 233.254 31.3359V31.3242H234.531V31.3359C234.613 31.5742 234.77 31.7676 235 31.916C235.23 32.0645 235.535 32.1387 235.914 32.1387C236.176 32.1387 236.404 32.1016 236.6 32.0273C236.799 31.9531 236.955 31.8496 237.068 31.7168C237.182 31.584 237.238 31.4316 237.238 31.2598V31.248C237.238 31.0488 237.158 30.8809 236.998 30.7441C236.838 30.6074 236.574 30.4961 236.207 30.4102L235.188 30.1758C234.789 30.0859 234.459 29.9629 234.197 29.8066C233.936 29.6504 233.742 29.459 233.617 29.2324C233.492 29.002 233.43 28.7324 233.43 28.4238V28.418C233.43 28.0469 233.535 27.7188 233.746 27.4336C233.957 27.1445 234.248 26.9199 234.619 26.7598C234.994 26.5957 235.422 26.5137 235.902 26.5137C236.387 26.5137 236.809 26.5898 237.168 26.7422C237.531 26.8906 237.818 27.0977 238.029 27.3633C238.24 27.625 238.365 27.9297 238.404 28.2773V28.2832H237.186V28.2715C237.127 28.0488 236.986 27.8633 236.764 27.7148C236.545 27.5664 236.256 27.4922 235.896 27.4922C235.666 27.4922 235.461 27.5293 235.281 27.6035C235.102 27.6738 234.959 27.7734 234.854 27.9023C234.752 28.0273 234.701 28.1758 234.701 28.3477V28.3594C234.701 28.4922 234.734 28.6094 234.801 28.7109C234.871 28.8086 234.98 28.8965 235.129 28.9746C235.277 29.0488 235.469 29.1152 235.703 29.1738L236.717 29.4023C237.326 29.5469 237.779 29.7559 238.076 30.0293C238.377 30.3027 238.527 30.6699 238.527 31.1309V31.1426C238.527 31.5332 238.412 31.8789 238.182 32.1797C237.951 32.4766 237.637 32.709 237.238 32.877C236.844 33.041 236.393 33.123 235.885 33.123ZM240.057 33V26.6367H241.334V33H240.057ZM240.701 25.5C240.482 25.5 240.295 25.4219 240.139 25.2656C239.982 25.1094 239.904 24.9219 239.904 24.7031C239.904 24.4844 239.982 24.2988 240.139 24.1465C240.295 23.9902 240.482 23.9121 240.701 23.9121C240.92 23.9121 241.107 23.9902 241.264 24.1465C241.42 24.2988 241.498 24.4844 241.498 24.7031C241.498 24.9219 241.42 25.1094 241.264 25.2656C241.107 25.4219 240.92 25.5 240.701 25.5ZM245.582 33.041C244.887 33.041 244.383 32.9082 244.07 32.6426C243.762 32.373 243.607 31.9336 243.607 31.3242V27.6387H242.611V26.6367H243.607V25.0312H244.908V26.6367H246.273V27.6387H244.908V31.0137C244.908 31.3574 244.977 31.6055 245.113 31.7578C245.25 31.9062 245.477 31.9805 245.793 31.9805C245.887 31.9805 245.967 31.9785 246.033 31.9746C246.104 31.9707 246.184 31.9648 246.273 31.957V32.9766C246.172 32.9922 246.062 33.0059 245.945 33.0176C245.828 33.0332 245.707 33.041 245.582 33.041Z" fill="white" fill-opacity="0.5"/>
<path d="M45.9727 21.1113V20.0098H48.2812C48.8516 20.0098 49.293 19.8633 49.6055 19.5703C49.9219 19.2734 50.0801 18.8633 50.0801 18.3398V18.3281C50.0801 17.7969 49.9219 17.3848 49.6055 17.0918C49.293 16.7988 48.8516 16.6523 48.2812 16.6523H45.9727V15.5449H48.6094C49.1641 15.5449 49.6504 15.6621 50.0684 15.8965C50.4902 16.127 50.8203 16.4512 51.0586 16.8691C51.2969 17.2832 51.416 17.7656 51.416 18.3164V18.3281C51.416 18.8789 51.2969 19.3652 51.0586 19.7871C50.8203 20.2051 50.4902 20.5312 50.0684 20.7656C49.6504 20.9961 49.1641 21.1113 48.6094 21.1113H45.9727ZM45.3164 24V15.5449H46.6289V24H45.3164ZM55.4824 24.123C54.8613 24.123 54.3242 23.9902 53.8711 23.7246C53.4219 23.459 53.0762 23.0801 52.834 22.5879C52.5918 22.0918 52.4707 21.5039 52.4707 20.8242V20.8125C52.4707 20.1289 52.5918 19.541 52.834 19.0488C53.0801 18.5566 53.4277 18.1777 53.877 17.9121C54.3301 17.6465 54.8652 17.5137 55.4824 17.5137C56.1035 17.5137 56.6387 17.6465 57.0879 17.9121C57.5371 18.1738 57.8828 18.5527 58.125 19.0488C58.3711 19.541 58.4941 20.1289 58.4941 20.8125V20.8242C58.4941 21.5039 58.3711 22.0918 58.125 22.5879C57.8828 23.0801 57.5371 23.459 57.0879 23.7246C56.6426 23.9902 56.1074 24.123 55.4824 24.123ZM55.4824 23.0566C55.8457 23.0566 56.1543 22.9688 56.4082 22.793C56.6621 22.6133 56.8555 22.3574 56.9883 22.0254C57.1211 21.6934 57.1875 21.293 57.1875 20.8242V20.8125C57.1875 20.3398 57.1211 19.9375 56.9883 19.6055C56.8555 19.2734 56.6621 19.0195 56.4082 18.8438C56.1543 18.6641 55.8457 18.5742 55.4824 18.5742C55.1191 18.5742 54.8105 18.6641 54.5566 18.8438C54.3027 19.0195 54.1074 19.2734 53.9707 19.6055C53.8379 19.9375 53.7715 20.3398 53.7715 20.8125V20.8242C53.7715 21.293 53.8379 21.6934 53.9707 22.0254C54.1074 22.3574 54.3027 22.6133 54.5566 22.793C54.8105 22.9688 55.1191 23.0566 55.4824 23.0566ZM60.0059 24V17.6367H61.2773V18.5977H61.377C61.4902 18.2578 61.6895 17.9941 61.9746 17.8066C62.2637 17.6191 62.6191 17.5254 63.041 17.5254C63.1465 17.5254 63.25 17.5312 63.3516 17.543C63.4531 17.5547 63.5352 17.5684 63.5977 17.584V18.7559C63.4844 18.7324 63.3711 18.7148 63.2578 18.7031C63.1484 18.6914 63.0332 18.6855 62.9121 18.6855C62.5879 18.6855 62.3027 18.748 62.0566 18.873C61.8145 18.998 61.623 19.1738 61.4824 19.4004C61.3457 19.623 61.2773 19.8887 61.2773 20.1973V24H60.0059ZM67.3535 24.041C66.6582 24.041 66.1543 23.9082 65.8418 23.6426C65.5332 23.373 65.3789 22.9336 65.3789 22.3242V18.6387H64.3828V17.6367H65.3789V16.0312H66.6797V17.6367H68.0449V18.6387H66.6797V22.0137C66.6797 22.3574 66.748 22.6055 66.8848 22.7578C67.0215 22.9062 67.248 22.9805 67.5645 22.9805C67.6582 22.9805 67.7383 22.9785 67.8047 22.9746C67.875 22.9707 67.9551 22.9648 68.0449 22.957V23.9766C67.9434 23.9922 67.834 24.0059 67.7168 24.0176C67.5996 24.0332 67.4785 24.041 67.3535 24.041ZM70.0078 24V18.6387H68.959V17.6367H70.0078V16.9688C70.0078 16.543 70.0781 16.1914 70.2188 15.9141C70.3633 15.6328 70.582 15.4238 70.875 15.2871C71.168 15.1504 71.5371 15.082 71.9824 15.082C72.123 15.082 72.2539 15.0879 72.375 15.0996C72.5 15.1074 72.6191 15.1211 72.7324 15.1406V16.0781C72.6738 16.0664 72.6016 16.0586 72.5156 16.0547C72.4336 16.0469 72.3438 16.043 72.2461 16.043C71.8945 16.043 71.6426 16.127 71.4902 16.2949C71.3418 16.4629 71.2676 16.707 71.2676 17.0273V17.6367H72.6738V18.6387H71.2793V24H70.0078ZM76.5527 24.123C75.9316 24.123 75.3945 23.9902 74.9414 23.7246C74.4922 23.459 74.1465 23.0801 73.9043 22.5879C73.6621 22.0918 73.541 21.5039 73.541 20.8242V20.8125C73.541 20.1289 73.6621 19.541 73.9043 19.0488C74.1504 18.5566 74.498 18.1777 74.9473 17.9121C75.4004 17.6465 75.9355 17.5137 76.5527 17.5137C77.1738 17.5137 77.709 17.6465 78.1582 17.9121C78.6074 18.1738 78.9531 18.5527 79.1953 19.0488C79.4414 19.541 79.5645 20.1289 79.5645 20.8125V20.8242C79.5645 21.5039 79.4414 22.0918 79.1953 22.5879C78.9531 23.0801 78.6074 23.459 78.1582 23.7246C77.7129 23.9902 77.1777 24.123 76.5527 24.123ZM76.5527 23.0566C76.916 23.0566 77.2246 22.9688 77.4785 22.793C77.7324 22.6133 77.9258 22.3574 78.0586 22.0254C78.1914 21.6934 78.2578 21.293 78.2578 20.8242V20.8125C78.2578 20.3398 78.1914 19.9375 78.0586 19.6055C77.9258 19.2734 77.7324 19.0195 77.4785 18.8438C77.2246 18.6641 76.916 18.5742 76.5527 18.5742C76.1895 18.5742 75.8809 18.6641 75.627 18.8438C75.373 19.0195 75.1777 19.2734 75.041 19.6055C74.9082 19.9375 74.8418 20.3398 74.8418 20.8125V20.8242C74.8418 21.293 74.9082 21.6934 75.041 22.0254C75.1777 22.3574 75.373 22.6133 75.627 22.793C75.8809 22.9688 76.1895 23.0566 76.5527 23.0566ZM81.1348 24V15.1406H82.4062V24H81.1348ZM84.3164 24V17.6367H85.5938V24H84.3164ZM84.9609 16.5C84.7422 16.5 84.5547 16.4219 84.3984 16.2656C84.2422 16.1094 84.1641 15.9219 84.1641 15.7031C84.1641 15.4844 84.2422 15.2988 84.3984 15.1465C84.5547 14.9902 84.7422 14.9121 84.9609 14.9121C85.1797 14.9121 85.3672 14.9902 85.5234 15.1465C85.6797 15.2988 85.7578 15.4844 85.7578 15.7031C85.7578 15.9219 85.6797 16.1094 85.5234 16.2656C85.3672 16.4219 85.1797 16.5 84.9609 16.5ZM90.1348 24.123C89.5137 24.123 88.9766 23.9902 88.5234 23.7246C88.0742 23.459 87.7285 23.0801 87.4863 22.5879C87.2441 22.0918 87.123 21.5039 87.123 20.8242V20.8125C87.123 20.1289 87.2441 19.541 87.4863 19.0488C87.7324 18.5566 88.0801 18.1777 88.5293 17.9121C88.9824 17.6465 89.5176 17.5137 90.1348 17.5137C90.7559 17.5137 91.291 17.6465 91.7402 17.9121C92.1895 18.1738 92.5352 18.5527 92.7773 19.0488C93.0234 19.541 93.1465 20.1289 93.1465 20.8125V20.8242C93.1465 21.5039 93.0234 22.0918 92.7773 22.5879C92.5352 23.0801 92.1895 23.459 91.7402 23.7246C91.2949 23.9902 90.7598 24.123 90.1348 24.123ZM90.1348 23.0566C90.498 23.0566 90.8066 22.9688 91.0605 22.793C91.3145 22.6133 91.5078 22.3574 91.6406 22.0254C91.7734 21.6934 91.8398 21.293 91.8398 20.8242V20.8125C91.8398 20.3398 91.7734 19.9375 91.6406 19.6055C91.5078 19.2734 91.3145 19.0195 91.0605 18.8438C90.8066 18.6641 90.498 18.5742 90.1348 18.5742C89.7715 18.5742 89.4629 18.6641 89.209 18.8438C88.9551 19.0195 88.7598 19.2734 88.623 19.6055C88.4902 19.9375 88.4238 20.3398 88.4238 20.8125V20.8242C88.4238 21.293 88.4902 21.6934 88.623 22.0254C88.7598 22.3574 88.9551 22.6133 89.209 22.793C89.4629 22.9688 89.7715 23.0566 90.1348 23.0566Z" fill="white" fill-opacity="0.5"/>
<rect x="42" y="29" width="54" height="16" rx="2" fill="white" fill-opacity="0.1"/>
<path d="M131.922 24.2051C131.141 24.2051 130.463 24.0254 129.889 23.666C129.318 23.3066 128.879 22.7969 128.57 22.1367C128.262 21.4766 128.107 20.6914 128.107 19.7812V19.7695C128.107 18.8555 128.262 18.0684 128.57 17.4082C128.879 16.748 129.318 16.2383 129.889 15.8789C130.459 15.5195 131.137 15.3398 131.922 15.3398C132.543 15.3398 133.104 15.4629 133.604 15.709C134.107 15.9512 134.52 16.2871 134.84 16.7168C135.164 17.1465 135.361 17.6406 135.432 18.1992V18.2344H134.125L134.119 18.2109C134.041 17.8633 133.898 17.5625 133.691 17.3086C133.484 17.0547 133.23 16.8574 132.93 16.7168C132.629 16.5762 132.293 16.5059 131.922 16.5059C131.418 16.5059 130.98 16.6387 130.609 16.9043C130.242 17.1699 129.957 17.5469 129.754 18.0352C129.555 18.5195 129.455 19.0977 129.455 19.7695V19.7812C129.455 20.4453 129.555 21.0215 129.754 21.5098C129.957 21.998 130.242 22.375 130.609 22.6406C130.98 22.9062 131.42 23.0391 131.928 23.0391C132.299 23.0391 132.635 22.9766 132.936 22.8516C133.24 22.7266 133.494 22.5488 133.697 22.3184C133.9 22.084 134.039 21.8086 134.113 21.4922L134.125 21.4688H135.438L135.432 21.498C135.35 22.041 135.15 22.5156 134.834 22.9219C134.518 23.3281 134.111 23.6445 133.615 23.8711C133.119 24.0938 132.555 24.2051 131.922 24.2051ZM138.76 24.1055C138.357 24.1055 137.996 24.0293 137.676 23.877C137.359 23.7207 137.109 23.5 136.926 23.2148C136.742 22.9297 136.65 22.5957 136.65 22.2129V22.2012C136.65 21.8184 136.742 21.4922 136.926 21.2227C137.113 20.9531 137.383 20.7422 137.734 20.5898C138.09 20.4336 138.52 20.3398 139.023 20.3086L141.373 20.168V21.0645L139.199 21.2051C138.762 21.2324 138.439 21.3262 138.232 21.4863C138.025 21.6426 137.922 21.8633 137.922 22.1484V22.1602C137.922 22.4492 138.033 22.6777 138.256 22.8457C138.479 23.0098 138.76 23.0918 139.1 23.0918C139.416 23.0918 139.697 23.0293 139.943 22.9043C140.193 22.7754 140.389 22.6035 140.529 22.3887C140.67 22.1699 140.74 21.9238 140.74 21.6504V19.6465C140.74 19.2949 140.631 19.0273 140.412 18.8438C140.197 18.6562 139.877 18.5625 139.451 18.5625C139.096 18.5625 138.805 18.625 138.578 18.75C138.355 18.875 138.207 19.0508 138.133 19.2773L138.121 19.2949H136.896L136.902 19.2539C136.953 18.9023 137.092 18.5977 137.318 18.3398C137.549 18.0781 137.85 17.875 138.221 17.7305C138.596 17.5859 139.023 17.5137 139.504 17.5137C140.039 17.5137 140.492 17.5996 140.863 17.7715C141.238 17.9395 141.521 18.1836 141.713 18.5039C141.908 18.8203 142.006 19.2012 142.006 19.6465V24H140.74V23.0977H140.646C140.521 23.3125 140.365 23.4961 140.178 23.6484C139.99 23.7969 139.777 23.9102 139.539 23.9883C139.301 24.0664 139.041 24.1055 138.76 24.1055ZM146.113 24.123C145.602 24.123 145.156 24.0488 144.777 23.9004C144.398 23.748 144.098 23.5391 143.875 23.2734C143.652 23.0039 143.521 22.6914 143.482 22.3359V22.3242H144.76V22.3359C144.842 22.5742 144.998 22.7676 145.229 22.916C145.459 23.0645 145.764 23.1387 146.143 23.1387C146.404 23.1387 146.633 23.1016 146.828 23.0273C147.027 22.9531 147.184 22.8496 147.297 22.7168C147.41 22.584 147.467 22.4316 147.467 22.2598V22.248C147.467 22.0488 147.387 21.8809 147.227 21.7441C147.066 21.6074 146.803 21.4961 146.436 21.4102L145.416 21.1758C145.018 21.0859 144.688 20.9629 144.426 20.8066C144.164 20.6504 143.971 20.459 143.846 20.2324C143.721 20.002 143.658 19.7324 143.658 19.4238V19.418C143.658 19.0469 143.764 18.7188 143.975 18.4336C144.186 18.1445 144.477 17.9199 144.848 17.7598C145.223 17.5957 145.65 17.5137 146.131 17.5137C146.615 17.5137 147.037 17.5898 147.396 17.7422C147.76 17.8906 148.047 18.0977 148.258 18.3633C148.469 18.625 148.594 18.9297 148.633 19.2773V19.2832H147.414V19.2715C147.355 19.0488 147.215 18.8633 146.992 18.7148C146.773 18.5664 146.484 18.4922 146.125 18.4922C145.895 18.4922 145.689 18.5293 145.51 18.6035C145.33 18.6738 145.188 18.7734 145.082 18.9023C144.98 19.0273 144.93 19.1758 144.93 19.3477V19.3594C144.93 19.4922 144.963 19.6094 145.029 19.7109C145.1 19.8086 145.209 19.8965 145.357 19.9746C145.506 20.0488 145.697 20.1152 145.932 20.1738L146.945 20.4023C147.555 20.5469 148.008 20.7559 148.305 21.0293C148.605 21.3027 148.756 21.6699 148.756 22.1309V22.1426C148.756 22.5332 148.641 22.8789 148.41 23.1797C148.18 23.4766 147.865 23.709 147.467 23.877C147.072 24.041 146.621 24.123 146.113 24.123ZM150.326 24V15.1406H151.598V18.5977H151.697C151.854 18.2578 152.084 17.9922 152.389 17.8008C152.693 17.6094 153.078 17.5137 153.543 17.5137C154.016 17.5137 154.416 17.6055 154.744 17.7891C155.072 17.9727 155.322 18.2422 155.494 18.5977C155.666 18.9492 155.752 19.377 155.752 19.8809V24H154.475V20.1797C154.475 19.6484 154.363 19.2539 154.141 18.9961C153.922 18.7344 153.578 18.6035 153.109 18.6035C152.801 18.6035 152.533 18.6719 152.307 18.8086C152.08 18.9414 151.904 19.1328 151.779 19.3828C151.658 19.6289 151.598 19.9238 151.598 20.2676V24H150.326Z" fill="white" fill-opacity="0.5"/>
<rect x="115" y="29" width="54" height="16" rx="2" fill="white" fill-opacity="0.1"/>
<rect x="312" y="20" width="1" height="18" fill="white" fill-opacity="0.15"/>
<rect x="325.5" y="9.5" width="63" height="39" rx="19.5" stroke="white" stroke-opacity="0.15"/>
<rect x="331" y="15" width="28" height="28" rx="14" fill="white" fill-opacity="0.1"/>
<path d="M365 31L369 27L373 31" stroke="white" stroke-opacity="0.15"/>
<path d="M183.717 159.111V158.01H186.025C186.596 158.01 187.037 157.863 187.35 157.57C187.666 157.273 187.824 156.863 187.824 156.34V156.328C187.824 155.797 187.666 155.385 187.35 155.092C187.037 154.799 186.596 154.652 186.025 154.652H183.717V153.545H186.354C186.908 153.545 187.395 153.662 187.812 153.896C188.234 154.127 188.564 154.451 188.803 154.869C189.041 155.283 189.16 155.766 189.16 156.316V156.328C189.16 156.879 189.041 157.365 188.803 157.787C188.564 158.205 188.234 158.531 187.812 158.766C187.395 158.996 186.908 159.111 186.354 159.111H183.717ZM183.061 162V153.545H184.373V162H183.061ZM190.707 162V155.637H191.979V156.598H192.078C192.191 156.258 192.391 155.994 192.676 155.807C192.965 155.619 193.32 155.525 193.742 155.525C193.848 155.525 193.951 155.531 194.053 155.543C194.154 155.555 194.236 155.568 194.299 155.584V156.756C194.186 156.732 194.072 156.715 193.959 156.703C193.85 156.691 193.734 156.686 193.613 156.686C193.289 156.686 193.004 156.748 192.758 156.873C192.516 156.998 192.324 157.174 192.184 157.4C192.047 157.623 191.979 157.889 191.979 158.197V162H190.707ZM198.055 162.123C197.434 162.123 196.896 161.99 196.443 161.725C195.994 161.459 195.648 161.08 195.406 160.588C195.164 160.092 195.043 159.504 195.043 158.824V158.812C195.043 158.129 195.164 157.541 195.406 157.049C195.652 156.557 196 156.178 196.449 155.912C196.902 155.646 197.438 155.514 198.055 155.514C198.676 155.514 199.211 155.646 199.66 155.912C200.109 156.174 200.455 156.553 200.697 157.049C200.943 157.541 201.066 158.129 201.066 158.812V158.824C201.066 159.504 200.943 160.092 200.697 160.588C200.455 161.08 200.109 161.459 199.66 161.725C199.215 161.99 198.68 162.123 198.055 162.123ZM198.055 161.057C198.418 161.057 198.727 160.969 198.98 160.793C199.234 160.613 199.428 160.357 199.561 160.025C199.693 159.693 199.76 159.293 199.76 158.824V158.812C199.76 158.34 199.693 157.938 199.561 157.605C199.428 157.273 199.234 157.02 198.98 156.844C198.727 156.664 198.418 156.574 198.055 156.574C197.691 156.574 197.383 156.664 197.129 156.844C196.875 157.02 196.68 157.273 196.543 157.605C196.41 157.938 196.344 158.34 196.344 158.812V158.824C196.344 159.293 196.41 159.693 196.543 160.025C196.68 160.357 196.875 160.613 197.129 160.793C197.383 160.969 197.691 161.057 198.055 161.057ZM203.029 162V156.639H201.98V155.637H203.029V154.969C203.029 154.543 203.1 154.191 203.24 153.914C203.385 153.633 203.604 153.424 203.896 153.287C204.189 153.15 204.559 153.082 205.004 153.082C205.145 153.082 205.275 153.088 205.396 153.1C205.521 153.107 205.641 153.121 205.754 153.141V154.078C205.695 154.066 205.623 154.059 205.537 154.055C205.455 154.047 205.365 154.043 205.268 154.043C204.916 154.043 204.664 154.127 204.512 154.295C204.363 154.463 204.289 154.707 204.289 155.027V155.637H205.695V156.639H204.301V162H203.029ZM207.143 162V155.637H208.42V162H207.143ZM207.787 154.5C207.568 154.5 207.381 154.422 207.225 154.266C207.068 154.109 206.99 153.922 206.99 153.703C206.99 153.484 207.068 153.299 207.225 153.146C207.381 152.99 207.568 152.912 207.787 152.912C208.006 152.912 208.193 152.99 208.35 153.146C208.506 153.299 208.584 153.484 208.584 153.703C208.584 153.922 208.506 154.109 208.35 154.266C208.193 154.422 208.006 154.5 207.787 154.5ZM210.324 162V153.141H211.596V162H210.324ZM216.16 162.123C215.539 162.123 215.006 161.99 214.561 161.725C214.115 161.455 213.771 161.074 213.529 160.582C213.291 160.09 213.172 159.508 213.172 158.836V158.83C213.172 158.166 213.291 157.586 213.529 157.09C213.771 156.594 214.111 156.207 214.549 155.93C214.99 155.652 215.506 155.514 216.096 155.514C216.689 155.514 217.199 155.646 217.625 155.912C218.055 156.178 218.385 156.551 218.615 157.031C218.846 157.508 218.961 158.066 218.961 158.707V159.152H213.816V158.244H218.328L217.719 159.088V158.578C217.719 158.125 217.648 157.75 217.508 157.453C217.371 157.152 217.182 156.928 216.939 156.779C216.697 156.631 216.418 156.557 216.102 156.557C215.785 156.557 215.502 156.635 215.252 156.791C215.006 156.943 214.811 157.17 214.666 157.471C214.525 157.771 214.455 158.141 214.455 158.578V159.088C214.455 159.506 214.525 159.863 214.666 160.16C214.807 160.457 215.006 160.684 215.264 160.84C215.525 160.996 215.834 161.074 216.189 161.074C216.463 161.074 216.697 161.037 216.893 160.963C217.092 160.885 217.254 160.789 217.379 160.676C217.508 160.562 217.596 160.451 217.643 160.342L217.666 160.295H218.896L218.885 160.348C218.83 160.559 218.734 160.77 218.598 160.98C218.461 161.188 218.279 161.377 218.053 161.549C217.83 161.721 217.561 161.859 217.244 161.965C216.932 162.07 216.57 162.123 216.16 162.123Z" fill="white" fill-opacity="0.5"/>
<path d="M185.92 200.205C185.283 200.205 184.729 200.105 184.256 199.906C183.783 199.703 183.41 199.422 183.137 199.062C182.863 198.703 182.707 198.287 182.668 197.814L182.662 197.738H183.957L183.963 197.803C183.99 198.057 184.09 198.277 184.262 198.465C184.438 198.652 184.672 198.799 184.965 198.904C185.262 199.01 185.6 199.062 185.979 199.062C186.334 199.062 186.65 199.006 186.928 198.893C187.205 198.779 187.422 198.623 187.578 198.424C187.738 198.225 187.818 197.996 187.818 197.738V197.732C187.818 197.408 187.695 197.139 187.449 196.924C187.203 196.709 186.801 196.541 186.242 196.42L185.316 196.227C184.461 196.043 183.838 195.752 183.447 195.354C183.057 194.951 182.861 194.438 182.861 193.812V193.807C182.865 193.318 182.996 192.889 183.254 192.518C183.516 192.146 183.877 191.857 184.338 191.65C184.799 191.443 185.328 191.34 185.926 191.34C186.523 191.34 187.045 191.443 187.49 191.65C187.939 191.854 188.293 192.131 188.551 192.482C188.812 192.834 188.959 193.23 188.99 193.672L188.996 193.748H187.713L187.701 193.672C187.666 193.441 187.57 193.236 187.414 193.057C187.262 192.877 187.057 192.736 186.799 192.635C186.545 192.529 186.248 192.479 185.908 192.482C185.58 192.482 185.287 192.533 185.029 192.635C184.771 192.732 184.566 192.875 184.414 193.062C184.266 193.25 184.191 193.477 184.191 193.742V193.748C184.191 194.061 184.311 194.322 184.549 194.533C184.791 194.74 185.184 194.902 185.727 195.02L186.652 195.225C187.242 195.35 187.721 195.516 188.088 195.723C188.455 195.93 188.723 196.186 188.891 196.49C189.062 196.791 189.148 197.15 189.148 197.568V197.574C189.148 198.113 189.016 198.58 188.75 198.975C188.488 199.365 188.115 199.668 187.631 199.883C187.146 200.098 186.576 200.205 185.92 200.205ZM193.402 200.123C192.781 200.123 192.248 199.99 191.803 199.725C191.357 199.455 191.014 199.074 190.771 198.582C190.533 198.09 190.414 197.508 190.414 196.836V196.83C190.414 196.166 190.533 195.586 190.771 195.09C191.014 194.594 191.354 194.207 191.791 193.93C192.232 193.652 192.748 193.514 193.338 193.514C193.932 193.514 194.441 193.646 194.867 193.912C195.297 194.178 195.627 194.551 195.857 195.031C196.088 195.508 196.203 196.066 196.203 196.707V197.152H191.059V196.244H195.57L194.961 197.088V196.578C194.961 196.125 194.891 195.75 194.75 195.453C194.613 195.152 194.424 194.928 194.182 194.779C193.939 194.631 193.66 194.557 193.344 194.557C193.027 194.557 192.744 194.635 192.494 194.791C192.248 194.943 192.053 195.17 191.908 195.471C191.768 195.771 191.697 196.141 191.697 196.578V197.088C191.697 197.506 191.768 197.863 191.908 198.16C192.049 198.457 192.248 198.684 192.506 198.84C192.768 198.996 193.076 199.074 193.432 199.074C193.705 199.074 193.939 199.037 194.135 198.963C194.334 198.885 194.496 198.789 194.621 198.676C194.75 198.562 194.838 198.451 194.885 198.342L194.908 198.295H196.139L196.127 198.348C196.072 198.559 195.977 198.77 195.84 198.98C195.703 199.188 195.521 199.377 195.295 199.549C195.072 199.721 194.803 199.859 194.486 199.965C194.174 200.07 193.812 200.123 193.402 200.123ZM200.117 200.041C199.422 200.041 198.918 199.908 198.605 199.643C198.297 199.373 198.143 198.934 198.143 198.324V194.639H197.146V193.637H198.143V192.031H199.443V193.637H200.809V194.639H199.443V198.014C199.443 198.357 199.512 198.605 199.648 198.758C199.785 198.906 200.012 198.98 200.328 198.98C200.422 198.98 200.502 198.979 200.568 198.975C200.639 198.971 200.719 198.965 200.809 198.957V199.977C200.707 199.992 200.598 200.006 200.48 200.018C200.363 200.033 200.242 200.041 200.117 200.041ZM204.723 200.041C204.027 200.041 203.523 199.908 203.211 199.643C202.902 199.373 202.748 198.934 202.748 198.324V194.639H201.752V193.637H202.748V192.031H204.049V193.637H205.414V194.639H204.049V198.014C204.049 198.357 204.117 198.605 204.254 198.758C204.391 198.906 204.617 198.98 204.934 198.98C205.027 198.98 205.107 198.979 205.174 198.975C205.244 198.971 205.324 198.965 205.414 198.957V199.977C205.312 199.992 205.203 200.006 205.086 200.018C204.969 200.033 204.848 200.041 204.723 200.041ZM206.92 200V193.637H208.197V200H206.92ZM207.564 192.5C207.346 192.5 207.158 192.422 207.002 192.266C206.846 192.109 206.768 191.922 206.768 191.703C206.768 191.484 206.846 191.299 207.002 191.146C207.158 190.99 207.346 190.912 207.564 190.912C207.783 190.912 207.971 190.99 208.127 191.146C208.283 191.299 208.361 191.484 208.361 191.703C208.361 191.922 208.283 192.109 208.127 192.266C207.971 192.422 207.783 192.5 207.564 192.5ZM210.043 200V193.637H211.314V194.598H211.414C211.57 194.258 211.801 193.992 212.105 193.801C212.41 193.609 212.795 193.514 213.26 193.514C213.975 193.514 214.521 193.719 214.9 194.129C215.279 194.539 215.469 195.123 215.469 195.881V200H214.191V196.18C214.191 195.648 214.08 195.254 213.857 194.996C213.639 194.734 213.295 194.604 212.826 194.604C212.518 194.604 212.25 194.672 212.023 194.809C211.797 194.941 211.621 195.133 211.496 195.383C211.375 195.629 211.314 195.924 211.314 196.268V200H210.043ZM219.928 202.244C219.389 202.244 218.92 202.17 218.521 202.021C218.127 201.873 217.814 201.666 217.584 201.4C217.354 201.135 217.213 200.826 217.162 200.475L217.168 200.463H218.457L218.463 200.475C218.518 200.693 218.672 200.873 218.926 201.014C219.18 201.154 219.52 201.225 219.945 201.225C220.469 201.225 220.877 201.105 221.17 200.867C221.467 200.629 221.615 200.295 221.615 199.865V198.617H221.516C221.391 198.844 221.23 199.039 221.035 199.203C220.84 199.363 220.617 199.484 220.367 199.566C220.117 199.648 219.846 199.689 219.553 199.689C219.014 199.689 218.545 199.561 218.146 199.303C217.752 199.041 217.447 198.682 217.232 198.225C217.021 197.764 216.916 197.234 216.916 196.637V196.625C216.916 196.02 217.023 195.484 217.238 195.02C217.453 194.551 217.76 194.186 218.158 193.924C218.557 193.658 219.031 193.525 219.582 193.525C219.879 193.525 220.15 193.572 220.396 193.666C220.646 193.76 220.867 193.893 221.059 194.064C221.25 194.236 221.408 194.441 221.533 194.68H221.609V193.637H222.881V199.871C222.881 200.352 222.76 200.77 222.518 201.125C222.279 201.48 221.939 201.756 221.498 201.951C221.057 202.146 220.533 202.244 219.928 202.244ZM219.91 198.635C220.27 198.635 220.578 198.551 220.836 198.383C221.094 198.211 221.291 197.975 221.428 197.674C221.568 197.373 221.639 197.025 221.639 196.631V196.619C221.639 196.229 221.568 195.881 221.428 195.576C221.291 195.271 221.094 195.033 220.836 194.861C220.578 194.689 220.27 194.604 219.91 194.604C219.551 194.604 219.244 194.689 218.99 194.861C218.74 195.033 218.549 195.271 218.416 195.576C218.283 195.877 218.217 196.225 218.217 196.619V196.631C218.217 197.025 218.283 197.373 218.416 197.674C218.549 197.975 218.74 198.211 218.99 198.383C219.244 198.551 219.551 198.635 219.91 198.635ZM227.029 200.123C226.518 200.123 226.072 200.049 225.693 199.9C225.314 199.748 225.014 199.539 224.791 199.273C224.568 199.004 224.438 198.691 224.398 198.336V198.324H225.676V198.336C225.758 198.574 225.914 198.768 226.145 198.916C226.375 199.064 226.68 199.139 227.059 199.139C227.32 199.139 227.549 199.102 227.744 199.027C227.943 198.953 228.1 198.85 228.213 198.717C228.326 198.584 228.383 198.432 228.383 198.26V198.248C228.383 198.049 228.303 197.881 228.143 197.744C227.982 197.607 227.719 197.496 227.352 197.41L226.332 197.176C225.934 197.086 225.604 196.963 225.342 196.807C225.08 196.65 224.887 196.459 224.762 196.232C224.637 196.002 224.574 195.732 224.574 195.424V195.418C224.574 195.047 224.68 194.719 224.891 194.434C225.102 194.145 225.393 193.92 225.764 193.76C226.139 193.596 226.566 193.514 227.047 193.514C227.531 193.514 227.953 193.59 228.312 193.742C228.676 193.891 228.963 194.098 229.174 194.363C229.385 194.625 229.51 194.93 229.549 195.277V195.283H228.33V195.271C228.271 195.049 228.131 194.863 227.908 194.715C227.689 194.566 227.4 194.492 227.041 194.492C226.811 194.492 226.605 194.529 226.426 194.604C226.246 194.674 226.104 194.773 225.998 194.902C225.896 195.027 225.846 195.176 225.846 195.348V195.359C225.846 195.492 225.879 195.609 225.945 195.711C226.016 195.809 226.125 195.896 226.273 195.975C226.422 196.049 226.613 196.115 226.848 196.174L227.861 196.402C228.471 196.547 228.924 196.756 229.221 197.029C229.521 197.303 229.672 197.67 229.672 198.131V198.143C229.672 198.533 229.557 198.879 229.326 199.18C229.096 199.477 228.781 199.709 228.383 199.877C227.988 200.041 227.537 200.123 227.029 200.123Z" fill="white" fill-opacity="0.5"/>
<rect x="163.5" y="51.5" width="223" height="279" rx="5.5" stroke="white" stroke-opacity="0.15"/>
<rect x="164" y="125" width="222" height="1" fill="white" fill-opacity="0.15"/>
<rect x="181" y="71" width="36" height="36" rx="18" fill="white" fill-opacity="0.1"/>
<rect x="224" y="71" width="60" height="16" rx="2" fill="white" fill-opacity="0.1"/>
<g filter="url(#filter0_d_25_3966)">
<path d="M224 101C224 95.4772 228.477 91 234 91H302C307.523 91 312 95.4772 312 101V101C312 106.523 307.523 111 302 111H234C228.477 111 224 106.523 224 101V101Z" fill="url(#paint2_linear_25_3966)"/>
</g>
<path d="M235.904 105.181C235.325 105.181 234.825 105.031 234.405 104.731C233.989 104.429 233.668 104.001 233.443 103.447C233.219 102.894 233.106 102.238 233.106 101.479V101.47C233.106 100.708 233.219 100.052 233.443 99.502C233.668 98.9486 233.989 98.5221 234.405 98.2227C234.825 97.9232 235.325 97.7734 235.904 97.7734C236.487 97.7734 236.987 97.9232 237.403 98.2227C237.82 98.5221 238.141 98.9486 238.365 99.502C238.59 100.052 238.702 100.708 238.702 101.47V101.479C238.702 102.238 238.59 102.894 238.365 103.447C238.141 104.001 237.82 104.429 237.403 104.731C236.987 105.031 236.487 105.181 235.904 105.181ZM235.904 104.014C236.184 104.014 236.42 103.913 236.612 103.711C236.808 103.509 236.956 103.219 237.057 102.842C237.161 102.464 237.213 102.01 237.213 101.479V101.47C237.213 100.936 237.161 100.482 237.057 100.107C236.956 99.7298 236.808 99.4417 236.612 99.2432C236.42 99.0413 236.184 98.9404 235.904 98.9404C235.628 98.9404 235.392 99.0413 235.196 99.2432C235.004 99.4417 234.856 99.7298 234.752 100.107C234.651 100.482 234.601 100.936 234.601 101.47V101.479C234.601 102.01 234.651 102.464 234.752 102.842C234.856 103.219 235.004 103.509 235.196 103.711C235.392 103.913 235.628 104.014 235.904 104.014ZM239.601 105L241.285 102.339L239.586 99.624H241.222L242.174 101.406H242.262L243.214 99.624H244.767L243.072 102.28L244.776 105H243.199L242.193 103.223H242.105L241.104 105H239.601ZM246.827 105.122C246.58 105.122 246.375 105.041 246.212 104.878C246.049 104.715 245.968 104.513 245.968 104.272C245.968 104.032 246.049 103.831 246.212 103.672C246.375 103.509 246.58 103.428 246.827 103.428C247.081 103.428 247.288 103.509 247.447 103.672C247.607 103.831 247.687 104.032 247.687 104.272C247.687 104.513 247.607 104.715 247.447 104.878C247.288 105.041 247.081 105.122 246.827 105.122ZM250.304 105.122C250.056 105.122 249.851 105.041 249.688 104.878C249.526 104.715 249.444 104.513 249.444 104.272C249.444 104.032 249.526 103.831 249.688 103.672C249.851 103.509 250.056 103.428 250.304 103.428C250.558 103.428 250.764 103.509 250.924 103.672C251.083 103.831 251.163 104.032 251.163 104.272C251.163 104.513 251.083 104.715 250.924 104.878C250.764 105.041 250.558 105.122 250.304 105.122ZM253.78 105.122C253.533 105.122 253.328 105.041 253.165 104.878C253.002 104.715 252.921 104.513 252.921 104.272C252.921 104.032 253.002 103.831 253.165 103.672C253.328 103.509 253.533 103.428 253.78 103.428C254.034 103.428 254.241 103.509 254.4 103.672C254.56 103.831 254.64 104.032 254.64 104.272C254.64 104.513 254.56 104.715 254.4 104.878C254.241 105.041 254.034 105.122 253.78 105.122Z" fill="white"/>
<rect x="268.314" y="117" width="16" height="16" rx="1" transform="rotate(45 268.314 117)" fill="#555555"/>
<rect x="220" y="123" width="96" height="24" rx="4" fill="url(#paint3_linear_25_3966)"/>
<path d="M236.867 139.181C236.187 139.181 235.599 139.031 235.104 138.731C234.61 138.432 234.229 138.006 233.962 137.452C233.695 136.899 233.562 136.241 233.562 135.479V135.47C233.562 134.708 233.695 134.05 233.962 133.497C234.229 132.944 234.608 132.519 235.1 132.223C235.594 131.923 236.184 131.773 236.867 131.773C237.424 131.773 237.924 131.882 238.366 132.101C238.812 132.319 239.172 132.62 239.445 133.004C239.719 133.388 239.878 133.827 239.924 134.322V134.386H238.493L238.488 134.352C238.439 134.088 238.34 133.857 238.19 133.658C238.041 133.456 237.852 133.3 237.624 133.189C237.399 133.079 237.147 133.023 236.867 133.023C236.499 133.023 236.18 133.123 235.91 133.321C235.64 133.517 235.432 133.798 235.285 134.166C235.142 134.531 235.07 134.965 235.07 135.47V135.479C235.07 135.981 235.142 136.415 235.285 136.783C235.432 137.151 235.64 137.434 235.91 137.633C236.18 137.831 236.501 137.931 236.872 137.931C237.155 137.931 237.408 137.88 237.629 137.779C237.854 137.675 238.039 137.53 238.186 137.345C238.335 137.156 238.435 136.936 238.483 136.686L238.493 136.642H239.929V136.7C239.877 137.192 239.715 137.623 239.445 137.994C239.175 138.365 238.82 138.657 238.381 138.868C237.941 139.076 237.437 139.181 236.867 139.181ZM243.532 139.112C242.982 139.112 242.508 139.002 242.111 138.78C241.714 138.556 241.41 138.235 241.198 137.818C240.987 137.398 240.881 136.897 240.881 136.314V136.305C240.881 135.725 240.988 135.227 241.203 134.811C241.418 134.394 241.722 134.073 242.116 133.849C242.513 133.621 242.985 133.507 243.532 133.507C244.079 133.507 244.549 133.619 244.943 133.844C245.34 134.068 245.646 134.391 245.861 134.811C246.076 135.227 246.184 135.725 246.184 136.305V136.314C246.184 136.897 246.078 137.398 245.866 137.818C245.655 138.235 245.35 138.556 244.953 138.78C244.559 139.002 244.086 139.112 243.532 139.112ZM243.532 137.994C243.786 137.994 244.001 137.927 244.177 137.794C244.353 137.66 244.488 137.468 244.582 137.218C244.676 136.967 244.724 136.666 244.724 136.314V136.305C244.724 135.953 244.676 135.654 244.582 135.406C244.488 135.156 244.351 134.964 244.172 134.83C243.996 134.693 243.783 134.625 243.532 134.625C243.282 134.625 243.067 134.693 242.888 134.83C242.712 134.964 242.577 135.156 242.482 135.406C242.388 135.654 242.341 135.953 242.341 136.305V136.314C242.341 136.669 242.386 136.972 242.478 137.223C242.572 137.473 242.707 137.665 242.883 137.799C243.062 137.929 243.278 137.994 243.532 137.994ZM247.346 140.782V133.624H248.771V134.454H248.859C248.954 134.262 249.077 134.098 249.23 133.961C249.387 133.824 249.569 133.72 249.777 133.648C249.986 133.574 250.217 133.536 250.471 133.536C250.92 133.536 251.307 133.648 251.633 133.873C251.958 134.098 252.209 134.417 252.385 134.83C252.564 135.24 252.653 135.732 252.653 136.305V136.314C252.653 136.891 252.565 137.385 252.39 137.799C252.214 138.212 251.963 138.53 251.638 138.751C251.312 138.972 250.923 139.083 250.471 139.083C250.223 139.083 249.994 139.046 249.782 138.971C249.574 138.893 249.39 138.784 249.23 138.644C249.074 138.504 248.951 138.336 248.859 138.141H248.771V140.782H247.346ZM249.982 137.901C250.236 137.901 250.453 137.838 250.632 137.711C250.814 137.584 250.954 137.402 251.052 137.164C251.153 136.926 251.203 136.643 251.203 136.314V136.305C251.203 135.976 251.153 135.693 251.052 135.455C250.954 135.217 250.814 135.035 250.632 134.908C250.453 134.781 250.236 134.718 249.982 134.718C249.732 134.718 249.514 134.781 249.328 134.908C249.146 135.035 249.004 135.217 248.903 135.455C248.806 135.689 248.757 135.973 248.757 136.305V136.314C248.757 136.64 248.807 136.923 248.908 137.164C249.009 137.402 249.151 137.584 249.333 137.711C249.519 137.838 249.735 137.901 249.982 137.901ZM254.235 140.895C254.154 140.895 254.069 140.893 253.981 140.89C253.894 140.886 253.807 140.883 253.723 140.88V139.806C253.771 139.812 253.828 139.815 253.894 139.815C253.962 139.819 254.029 139.82 254.094 139.82C254.348 139.82 254.549 139.77 254.699 139.669C254.849 139.568 254.948 139.413 254.997 139.205L255.046 139L253.156 133.624H254.724L256.008 138.263L255.681 137.696H256.105L255.793 138.263L257.077 133.624H258.581L256.75 138.995C256.594 139.467 256.403 139.841 256.179 140.118C255.957 140.398 255.689 140.597 255.373 140.714C255.057 140.834 254.678 140.895 254.235 140.895ZM261.789 139L264.235 131.954H265.49V133.36H265.061L263.337 139H261.789ZM263.098 137.291L263.459 136.188H266.716L267.077 137.291H263.098ZM266.867 139L265.148 133.36V131.954H265.969L268.42 139H266.867ZM271.101 139.083C270.655 139.083 270.267 138.972 269.938 138.751C269.613 138.526 269.361 138.207 269.182 137.794C269.006 137.381 268.918 136.887 268.918 136.314V136.305C268.918 135.729 269.004 135.234 269.177 134.82C269.353 134.407 269.603 134.09 269.929 133.868C270.254 133.647 270.645 133.536 271.101 133.536C271.345 133.536 271.571 133.575 271.779 133.653C271.991 133.728 272.176 133.836 272.336 133.976C272.495 134.116 272.619 134.285 272.707 134.483H272.795V131.568H274.221V139H272.795V138.165H272.707C272.616 138.357 272.492 138.521 272.336 138.658C272.183 138.795 272.002 138.901 271.794 138.976C271.586 139.047 271.354 139.083 271.101 139.083ZM271.584 137.901C271.838 137.901 272.056 137.838 272.238 137.711C272.421 137.584 272.561 137.402 272.658 137.164C272.759 136.926 272.81 136.645 272.81 136.319V136.31C272.81 135.978 272.759 135.694 272.658 135.46C272.561 135.222 272.419 135.04 272.233 134.913C272.051 134.783 271.835 134.718 271.584 134.718C271.337 134.718 271.12 134.783 270.935 134.913C270.752 135.04 270.612 135.222 270.515 135.46C270.417 135.694 270.368 135.976 270.368 136.305V136.314C270.368 136.643 270.417 136.926 270.515 137.164C270.612 137.402 270.752 137.584 270.935 137.711C271.117 137.838 271.333 137.901 271.584 137.901ZM277.614 139.083C277.168 139.083 276.781 138.972 276.452 138.751C276.127 138.526 275.874 138.207 275.695 137.794C275.52 137.381 275.432 136.887 275.432 136.314V136.305C275.432 135.729 275.518 135.234 275.69 134.82C275.866 134.407 276.117 134.09 276.442 133.868C276.768 133.647 277.159 133.536 277.614 133.536C277.858 133.536 278.085 133.575 278.293 133.653C278.505 133.728 278.69 133.836 278.85 133.976C279.009 134.116 279.133 134.285 279.221 134.483H279.309V131.568H280.734V139H279.309V138.165H279.221C279.13 138.357 279.006 138.521 278.85 138.658C278.697 138.795 278.516 138.901 278.308 138.976C278.099 139.047 277.868 139.083 277.614 139.083ZM278.098 137.901C278.352 137.901 278.57 137.838 278.752 137.711C278.934 137.584 279.074 137.402 279.172 137.164C279.273 136.926 279.323 136.645 279.323 136.319V136.31C279.323 135.978 279.273 135.694 279.172 135.46C279.074 135.222 278.933 135.04 278.747 134.913C278.565 134.783 278.348 134.718 278.098 134.718C277.85 134.718 277.634 134.783 277.448 134.913C277.266 135.04 277.126 135.222 277.028 135.46C276.931 135.694 276.882 135.976 276.882 136.305V136.314C276.882 136.643 276.931 136.926 277.028 137.164C277.126 137.402 277.266 137.584 277.448 137.711C277.631 137.838 277.847 137.901 278.098 137.901ZM282.209 139V133.624H283.635V134.459H283.723C283.811 134.166 283.972 133.94 284.206 133.78C284.44 133.618 284.732 133.536 285.08 133.536C285.178 133.536 285.272 133.543 285.363 133.556C285.458 133.569 285.541 133.585 285.612 133.604V134.85C285.505 134.824 285.396 134.804 285.285 134.791C285.178 134.775 285.069 134.767 284.958 134.767C284.688 134.767 284.453 134.817 284.255 134.918C284.056 135.016 283.903 135.156 283.796 135.338C283.688 135.52 283.635 135.738 283.635 135.992V139H282.209ZM288.811 139.112C288.267 139.112 287.798 139 287.404 138.775C287.014 138.548 286.713 138.225 286.501 137.809C286.289 137.392 286.184 136.896 286.184 136.319V136.314C286.184 135.745 286.288 135.25 286.496 134.83C286.708 134.41 287.006 134.085 287.39 133.854C287.777 133.622 288.231 133.507 288.752 133.507C289.276 133.507 289.729 133.619 290.109 133.844C290.49 134.068 290.783 134.382 290.988 134.786C291.193 135.19 291.296 135.663 291.296 136.207V136.651H286.896V135.758H290.612L289.943 136.603V136.031C289.943 135.709 289.893 135.44 289.792 135.226C289.694 135.011 289.558 134.85 289.382 134.742C289.209 134.632 289.007 134.576 288.776 134.576C288.549 134.576 288.345 134.633 288.166 134.747C287.99 134.858 287.85 135.022 287.746 135.24C287.645 135.455 287.595 135.719 287.595 136.031V136.607C287.595 136.91 287.645 137.169 287.746 137.384C287.847 137.599 287.99 137.763 288.176 137.877C288.361 137.991 288.583 138.048 288.84 138.048C289.048 138.048 289.226 138.017 289.372 137.955C289.519 137.893 289.636 137.822 289.724 137.74C289.815 137.656 289.877 137.579 289.909 137.511L289.924 137.481H291.252L291.242 137.53C291.2 137.7 291.123 137.877 291.013 138.062C290.902 138.245 290.749 138.416 290.554 138.575C290.362 138.735 290.121 138.865 289.831 138.966C289.545 139.063 289.204 139.112 288.811 139.112ZM294.602 139.112C294.113 139.112 293.697 139.046 293.352 138.912C293.01 138.775 292.741 138.588 292.546 138.351C292.354 138.113 292.242 137.841 292.209 137.535L292.204 137.516H293.605L293.615 137.535C293.674 137.701 293.785 137.838 293.947 137.945C294.113 138.053 294.336 138.106 294.616 138.106C294.799 138.106 294.958 138.082 295.095 138.033C295.231 137.981 295.339 137.911 295.417 137.823C295.495 137.735 295.534 137.633 295.534 137.516V137.506C295.534 137.363 295.476 137.244 295.358 137.149C295.241 137.055 295.046 136.977 294.772 136.915L293.874 136.725C293.532 136.653 293.247 136.549 293.02 136.412C292.792 136.272 292.621 136.101 292.507 135.899C292.396 135.698 292.341 135.463 292.341 135.196V135.191C292.341 134.853 292.434 134.558 292.619 134.308C292.808 134.054 293.07 133.857 293.405 133.717C293.744 133.577 294.136 133.507 294.582 133.507C295.051 133.507 295.45 133.578 295.778 133.722C296.107 133.862 296.359 134.05 296.535 134.288C296.714 134.522 296.813 134.785 296.833 135.074V135.094H295.51L295.505 135.069C295.466 134.923 295.368 134.794 295.212 134.684C295.056 134.57 294.844 134.513 294.577 134.513C294.414 134.513 294.27 134.537 294.143 134.586C294.016 134.635 293.915 134.703 293.84 134.791C293.768 134.879 293.732 134.983 293.732 135.104V135.108C293.732 135.203 293.757 135.286 293.806 135.357C293.854 135.429 293.934 135.491 294.045 135.543C294.156 135.595 294.304 135.642 294.489 135.685L295.383 135.875C295.92 135.992 296.317 136.168 296.574 136.402C296.831 136.637 296.96 136.952 296.96 137.35V137.354C296.96 137.709 296.859 138.019 296.657 138.282C296.455 138.546 296.177 138.751 295.822 138.897C295.467 139.041 295.061 139.112 294.602 139.112ZM300.168 139.112C299.68 139.112 299.263 139.046 298.918 138.912C298.576 138.775 298.308 138.588 298.112 138.351C297.92 138.113 297.808 137.841 297.775 137.535L297.771 137.516H299.172L299.182 137.535C299.24 137.701 299.351 137.838 299.514 137.945C299.68 138.053 299.903 138.106 300.183 138.106C300.365 138.106 300.524 138.082 300.661 138.033C300.798 137.981 300.905 137.911 300.983 137.823C301.062 137.735 301.101 137.633 301.101 137.516V137.506C301.101 137.363 301.042 137.244 300.925 137.149C300.808 137.055 300.612 136.977 300.339 136.915L299.44 136.725C299.099 136.653 298.814 136.549 298.586 136.412C298.358 136.272 298.187 136.101 298.073 135.899C297.963 135.698 297.907 135.463 297.907 135.196V135.191C297.907 134.853 298 134.558 298.186 134.308C298.374 134.054 298.636 133.857 298.972 133.717C299.31 133.577 299.702 133.507 300.148 133.507C300.617 133.507 301.016 133.578 301.345 133.722C301.674 133.862 301.926 134.05 302.102 134.288C302.281 134.522 302.38 134.785 302.399 135.074V135.094H301.076L301.071 135.069C301.032 134.923 300.935 134.794 300.778 134.684C300.622 134.57 300.41 134.513 300.144 134.513C299.981 134.513 299.836 134.537 299.709 134.586C299.582 134.635 299.481 134.703 299.406 134.791C299.335 134.879 299.299 134.983 299.299 135.104V135.108C299.299 135.203 299.323 135.286 299.372 135.357C299.421 135.429 299.501 135.491 299.611 135.543C299.722 135.595 299.87 135.642 300.056 135.685L300.949 135.875C301.486 135.992 301.883 136.168 302.141 136.402C302.398 136.637 302.526 136.952 302.526 137.35V137.354C302.526 137.709 302.425 138.019 302.224 138.282C302.022 138.546 301.743 138.751 301.389 138.897C301.034 139.041 300.627 139.112 300.168 139.112Z" fill="white"/>
</g>
</g>
<defs>
<filter id="filter0_d_25_3966" x="208" y="79" width="120" height="52" filterUnits="userSpaceOnUse" color-interpolation-filters="sRGB">
<feFlood flood-opacity="0" result="BackgroundImageFix"/>
<feColorMatrix in="SourceAlpha" type="matrix" values="0 0 0 0 0 0 0 0 0 0 0 0 0 0 0 0 0 0 127 0" result="hardAlpha"/>
<feOffset dy="4"/>
<feGaussianBlur stdDeviation="8"/>
<feComposite in2="hardAlpha" operator="out"/>
<feColorMatrix type="matrix" values="0 0 0 0 0.0862745 0 0 0 0 0.321569 0 0 0 0 0.941176 0 0 0 0.2 0"/>
<feBlend mode="normal" in2="BackgroundImageFix" result="effect1_dropShadow_25_3966"/>
<feBlend mode="normal" in="SourceGraphic" in2="effect1_dropShadow_25_3966" result="shape"/>
</filter>
<linearGradient id="paint0_linear_25_3966" x1="201" y1="148" x2="201" y2="200" gradientUnits="userSpaceOnUse">
<stop stop-color="white"/>
<stop offset="0.1875" stop-color="white" stop-opacity="0.240385"/>
<stop offset="1" stop-color="white" stop-opacity="0"/>
</linearGradient>
<linearGradient id="paint1_linear_25_3966" x1="163" y1="100" x2="0.999999" y2="100" gradientUnits="userSpaceOnUse">
<stop stop-color="white"/>
<stop offset="1" stop-color="white" stop-opacity="0"/>
</linearGradient>
<linearGradient id="paint2_linear_25_3966" x1="268" y1="111" x2="268" y2="91" gradientUnits="userSpaceOnUse">
<stop stop-color="#1652F0"/>
<stop offset="1" stop-color="#4B79F3"/>
</linearGradient>
<linearGradient id="paint3_linear_25_3966" x1="268" y1="147" x2="268" y2="123" gradientUnits="userSpaceOnUse">
<stop stop-color="#444444"/>
<stop offset="1" stop-color="#555555"/>
</linearGradient>
<clipPath id="clip0_25_3966">
<rect width="400" height="200" fill="white" transform="translate(1)"/>
</clipPath>
</defs>
</svg>
