<svg width="400" height="200" viewBox="0 0 400 200" fill="none" xmlns="http://www.w3.org/2000/svg">
<g clip-path="url(#clip0_25_3066)">
<mask id="mask0_25_3066" style="mask-type:alpha" maskUnits="userSpaceOnUse" x="0" y="0" width="400" height="200">
<rect y="148" width="400" height="52" fill="url(#paint0_linear_25_3066)"/>
<rect width="162" height="200" fill="url(#paint1_linear_25_3066)"/>
<rect x="162" width="238" height="148" fill="white"/>
</mask>
<g mask="url(#mask0_25_3066)">
<rect x="-8.5" y="0.5" width="408" height="207" rx="7.5" stroke="black" stroke-opacity="0.1"/>
<path d="M292.833 30.905V27.9167C292.833 25.2358 291.012 22.9775 288.546 22.2983C288.302 21.6833 287.705 21.25 287 21.25C286.295 21.25 285.698 21.6833 285.454 22.2983C282.988 22.9783 281.167 25.2358 281.167 27.9167V30.905L279.744 32.3275C279.587 32.4833 279.5 32.695 279.5 32.9167V34.5833C279.5 35.0442 279.873 35.4167 280.333 35.4167H293.667C294.127 35.4167 294.5 35.0442 294.5 34.5833V32.9167C294.5 32.695 294.413 32.4833 294.256 32.3275L292.833 30.905ZM287 38.75C288.092 38.75 289.006 38.055 289.348 37.0833H284.652C284.994 38.055 285.907 38.75 287 38.75Z" stroke="black" stroke-opacity="0.1"/>
<rect x="183.5" y="13.5" width="79" height="31" rx="5.5" stroke="black" stroke-opacity="0.1"/>
<path d="M202.213 33V24.5449H205.266C206.105 24.5449 206.822 24.7109 207.416 25.043C208.01 25.375 208.463 25.8535 208.775 26.4785C209.092 27.1035 209.25 27.8594 209.25 28.7461V28.7578C209.25 29.6523 209.092 30.416 208.775 31.0488C208.463 31.6816 208.01 32.166 207.416 32.502C206.826 32.834 206.109 33 205.266 33H202.213ZM203.525 31.8633H205.119C205.709 31.8633 206.211 31.7422 206.625 31.5C207.043 31.2578 207.359 30.9062 207.574 30.4453C207.793 29.9844 207.902 29.4277 207.902 28.7754V28.7637C207.902 28.1152 207.791 27.5605 207.568 27.0996C207.35 26.6387 207.033 26.2871 206.619 26.0449C206.205 25.8027 205.705 25.6816 205.119 25.6816H203.525V31.8633ZM213.551 33.123C212.93 33.123 212.396 32.9902 211.951 32.7246C211.506 32.4551 211.162 32.0742 210.92 31.582C210.682 31.0898 210.562 30.5078 210.562 29.8359V29.8301C210.562 29.166 210.682 28.5859 210.92 28.0898C211.162 27.5938 211.502 27.207 211.939 26.9297C212.381 26.6523 212.896 26.5137 213.486 26.5137C214.08 26.5137 214.59 26.6465 215.016 26.9121C215.445 27.1777 215.775 27.5508 216.006 28.0312C216.236 28.5078 216.352 29.0664 216.352 29.707V30.1523H211.207V29.2441H215.719L215.109 30.0879V29.5781C215.109 29.125 215.039 28.75 214.898 28.4531C214.762 28.1523 214.572 27.9277 214.33 27.7793C214.088 27.6309 213.809 27.5566 213.492 27.5566C213.176 27.5566 212.893 27.6348 212.643 27.791C212.396 27.9434 212.201 28.1699 212.057 28.4707C211.916 28.7715 211.846 29.1406 211.846 29.5781V30.0879C211.846 30.5059 211.916 30.8633 212.057 31.1602C212.197 31.457 212.396 31.6836 212.654 31.8398C212.916 31.9961 213.225 32.0742 213.58 32.0742C213.854 32.0742 214.088 32.0371 214.283 31.9629C214.482 31.8848 214.645 31.7891 214.77 31.6758C214.898 31.5625 214.986 31.4512 215.033 31.3418L215.057 31.2949H216.287L216.275 31.3477C216.221 31.5586 216.125 31.7695 215.988 31.9805C215.852 32.1875 215.67 32.377 215.443 32.5488C215.221 32.7207 214.951 32.8594 214.635 32.9648C214.322 33.0703 213.961 33.123 213.551 33.123ZM217.863 35.1211V26.6367H219.135V27.6387H219.234C219.355 27.4043 219.512 27.2051 219.703 27.041C219.898 26.877 220.121 26.75 220.371 26.6602C220.621 26.5703 220.895 26.5254 221.191 26.5254C221.727 26.5254 222.191 26.6621 222.586 26.9355C222.98 27.2051 223.285 27.5859 223.5 28.0781C223.719 28.5664 223.828 29.1445 223.828 29.8125V29.8242C223.828 30.4961 223.721 31.0781 223.506 31.5703C223.291 32.0586 222.986 32.4375 222.592 32.707C222.197 32.9727 221.73 33.1055 221.191 33.1055C220.898 33.1055 220.625 33.0605 220.371 32.9707C220.117 32.877 219.893 32.748 219.697 32.584C219.502 32.4199 219.348 32.2227 219.234 31.9922H219.135V35.1211H217.863ZM220.828 32.0156C221.184 32.0156 221.488 31.9277 221.742 31.752C221.996 31.5762 222.189 31.3242 222.322 30.9961C222.459 30.668 222.527 30.2773 222.527 29.8242V29.8125C222.527 29.3555 222.459 28.9629 222.322 28.6348C222.189 28.3066 221.996 28.0547 221.742 27.8789C221.488 27.7031 221.184 27.6152 220.828 27.6152C220.477 27.6152 220.172 27.7051 219.914 27.8848C219.656 28.0605 219.459 28.3125 219.322 28.6406C219.186 28.9648 219.117 29.3555 219.117 29.8125V29.8242C219.117 30.2734 219.186 30.6621 219.322 30.9902C219.459 31.3184 219.656 31.5723 219.914 31.752C220.172 31.9277 220.477 32.0156 220.828 32.0156ZM228.047 33.123C227.426 33.123 226.889 32.9902 226.436 32.7246C225.986 32.459 225.641 32.0801 225.398 31.5879C225.156 31.0918 225.035 30.5039 225.035 29.8242V29.8125C225.035 29.1289 225.156 28.541 225.398 28.0488C225.645 27.5566 225.992 27.1777 226.441 26.9121C226.895 26.6465 227.43 26.5137 228.047 26.5137C228.668 26.5137 229.203 26.6465 229.652 26.9121C230.102 27.1738 230.447 27.5527 230.689 28.0488C230.936 28.541 231.059 29.1289 231.059 29.8125V29.8242C231.059 30.5039 230.936 31.0918 230.689 31.5879C230.447 32.0801 230.102 32.459 229.652 32.7246C229.207 32.9902 228.672 33.123 228.047 33.123ZM228.047 32.0566C228.41 32.0566 228.719 31.9688 228.973 31.793C229.227 31.6133 229.42 31.3574 229.553 31.0254C229.686 30.6934 229.752 30.293 229.752 29.8242V29.8125C229.752 29.3398 229.686 28.9375 229.553 28.6055C229.42 28.2734 229.227 28.0195 228.973 27.8438C228.719 27.6641 228.41 27.5742 228.047 27.5742C227.684 27.5742 227.375 27.6641 227.121 27.8438C226.867 28.0195 226.672 28.2734 226.535 28.6055C226.402 28.9375 226.336 29.3398 226.336 29.8125V29.8242C226.336 30.293 226.402 30.6934 226.535 31.0254C226.672 31.3574 226.867 31.6133 227.121 31.793C227.375 31.9688 227.684 32.0566 228.047 32.0566ZM234.885 33.123C234.373 33.123 233.928 33.0488 233.549 32.9004C233.17 32.748 232.869 32.5391 232.646 32.2734C232.424 32.0039 232.293 31.6914 232.254 31.3359V31.3242H233.531V31.3359C233.613 31.5742 233.77 31.7676 234 31.916C234.23 32.0645 234.535 32.1387 234.914 32.1387C235.176 32.1387 235.404 32.1016 235.6 32.0273C235.799 31.9531 235.955 31.8496 236.068 31.7168C236.182 31.584 236.238 31.4316 236.238 31.2598V31.248C236.238 31.0488 236.158 30.8809 235.998 30.7441C235.838 30.6074 235.574 30.4961 235.207 30.4102L234.188 30.1758C233.789 30.0859 233.459 29.9629 233.197 29.8066C232.936 29.6504 232.742 29.459 232.617 29.2324C232.492 29.002 232.43 28.7324 232.43 28.4238V28.418C232.43 28.0469 232.535 27.7188 232.746 27.4336C232.957 27.1445 233.248 26.9199 233.619 26.7598C233.994 26.5957 234.422 26.5137 234.902 26.5137C235.387 26.5137 235.809 26.5898 236.168 26.7422C236.531 26.8906 236.818 27.0977 237.029 27.3633C237.24 27.625 237.365 27.9297 237.404 28.2773V28.2832H236.186V28.2715C236.127 28.0488 235.986 27.8633 235.764 27.7148C235.545 27.5664 235.256 27.4922 234.896 27.4922C234.666 27.4922 234.461 27.5293 234.281 27.6035C234.102 27.6738 233.959 27.7734 233.854 27.9023C233.752 28.0273 233.701 28.1758 233.701 28.3477V28.3594C233.701 28.4922 233.734 28.6094 233.801 28.7109C233.871 28.8086 233.98 28.8965 234.129 28.9746C234.277 29.0488 234.469 29.1152 234.703 29.1738L235.717 29.4023C236.326 29.5469 236.779 29.7559 237.076 30.0293C237.377 30.3027 237.527 30.6699 237.527 31.1309V31.1426C237.527 31.5332 237.412 31.8789 237.182 32.1797C236.951 32.4766 236.637 32.709 236.238 32.877C235.844 33.041 235.393 33.123 234.885 33.123ZM239.057 33V26.6367H240.334V33H239.057ZM239.701 25.5C239.482 25.5 239.295 25.4219 239.139 25.2656C238.982 25.1094 238.904 24.9219 238.904 24.7031C238.904 24.4844 238.982 24.2988 239.139 24.1465C239.295 23.9902 239.482 23.9121 239.701 23.9121C239.92 23.9121 240.107 23.9902 240.264 24.1465C240.42 24.2988 240.498 24.4844 240.498 24.7031C240.498 24.9219 240.42 25.1094 240.264 25.2656C240.107 25.4219 239.92 25.5 239.701 25.5ZM244.582 33.041C243.887 33.041 243.383 32.9082 243.07 32.6426C242.762 32.373 242.607 31.9336 242.607 31.3242V27.6387H241.611V26.6367H242.607V25.0312H243.908V26.6367H245.273V27.6387H243.908V31.0137C243.908 31.3574 243.977 31.6055 244.113 31.7578C244.25 31.9062 244.477 31.9805 244.793 31.9805C244.887 31.9805 244.967 31.9785 245.033 31.9746C245.104 31.9707 245.184 31.9648 245.273 31.957V32.9766C245.172 32.9922 245.062 33.0059 244.945 33.0176C244.828 33.0332 244.707 33.041 244.582 33.041Z" fill="black" fill-opacity="0.5"/>
<path d="M44.9727 21.1113V20.0098H47.2812C47.8516 20.0098 48.293 19.8633 48.6055 19.5703C48.9219 19.2734 49.0801 18.8633 49.0801 18.3398V18.3281C49.0801 17.7969 48.9219 17.3848 48.6055 17.0918C48.293 16.7988 47.8516 16.6523 47.2812 16.6523H44.9727V15.5449H47.6094C48.1641 15.5449 48.6504 15.6621 49.0684 15.8965C49.4902 16.127 49.8203 16.4512 50.0586 16.8691C50.2969 17.2832 50.416 17.7656 50.416 18.3164V18.3281C50.416 18.8789 50.2969 19.3652 50.0586 19.7871C49.8203 20.2051 49.4902 20.5312 49.0684 20.7656C48.6504 20.9961 48.1641 21.1113 47.6094 21.1113H44.9727ZM44.3164 24V15.5449H45.6289V24H44.3164ZM54.4824 24.123C53.8613 24.123 53.3242 23.9902 52.8711 23.7246C52.4219 23.459 52.0762 23.0801 51.834 22.5879C51.5918 22.0918 51.4707 21.5039 51.4707 20.8242V20.8125C51.4707 20.1289 51.5918 19.541 51.834 19.0488C52.0801 18.5566 52.4277 18.1777 52.877 17.9121C53.3301 17.6465 53.8652 17.5137 54.4824 17.5137C55.1035 17.5137 55.6387 17.6465 56.0879 17.9121C56.5371 18.1738 56.8828 18.5527 57.125 19.0488C57.3711 19.541 57.4941 20.1289 57.4941 20.8125V20.8242C57.4941 21.5039 57.3711 22.0918 57.125 22.5879C56.8828 23.0801 56.5371 23.459 56.0879 23.7246C55.6426 23.9902 55.1074 24.123 54.4824 24.123ZM54.4824 23.0566C54.8457 23.0566 55.1543 22.9688 55.4082 22.793C55.6621 22.6133 55.8555 22.3574 55.9883 22.0254C56.1211 21.6934 56.1875 21.293 56.1875 20.8242V20.8125C56.1875 20.3398 56.1211 19.9375 55.9883 19.6055C55.8555 19.2734 55.6621 19.0195 55.4082 18.8438C55.1543 18.6641 54.8457 18.5742 54.4824 18.5742C54.1191 18.5742 53.8105 18.6641 53.5566 18.8438C53.3027 19.0195 53.1074 19.2734 52.9707 19.6055C52.8379 19.9375 52.7715 20.3398 52.7715 20.8125V20.8242C52.7715 21.293 52.8379 21.6934 52.9707 22.0254C53.1074 22.3574 53.3027 22.6133 53.5566 22.793C53.8105 22.9688 54.1191 23.0566 54.4824 23.0566ZM59.0059 24V17.6367H60.2773V18.5977H60.377C60.4902 18.2578 60.6895 17.9941 60.9746 17.8066C61.2637 17.6191 61.6191 17.5254 62.041 17.5254C62.1465 17.5254 62.25 17.5312 62.3516 17.543C62.4531 17.5547 62.5352 17.5684 62.5977 17.584V18.7559C62.4844 18.7324 62.3711 18.7148 62.2578 18.7031C62.1484 18.6914 62.0332 18.6855 61.9121 18.6855C61.5879 18.6855 61.3027 18.748 61.0566 18.873C60.8145 18.998 60.623 19.1738 60.4824 19.4004C60.3457 19.623 60.2773 19.8887 60.2773 20.1973V24H59.0059ZM66.3535 24.041C65.6582 24.041 65.1543 23.9082 64.8418 23.6426C64.5332 23.373 64.3789 22.9336 64.3789 22.3242V18.6387H63.3828V17.6367H64.3789V16.0312H65.6797V17.6367H67.0449V18.6387H65.6797V22.0137C65.6797 22.3574 65.748 22.6055 65.8848 22.7578C66.0215 22.9062 66.248 22.9805 66.5645 22.9805C66.6582 22.9805 66.7383 22.9785 66.8047 22.9746C66.875 22.9707 66.9551 22.9648 67.0449 22.957V23.9766C66.9434 23.9922 66.834 24.0059 66.7168 24.0176C66.5996 24.0332 66.4785 24.041 66.3535 24.041ZM69.0078 24V18.6387H67.959V17.6367H69.0078V16.9688C69.0078 16.543 69.0781 16.1914 69.2188 15.9141C69.3633 15.6328 69.582 15.4238 69.875 15.2871C70.168 15.1504 70.5371 15.082 70.9824 15.082C71.123 15.082 71.2539 15.0879 71.375 15.0996C71.5 15.1074 71.6191 15.1211 71.7324 15.1406V16.0781C71.6738 16.0664 71.6016 16.0586 71.5156 16.0547C71.4336 16.0469 71.3438 16.043 71.2461 16.043C70.8945 16.043 70.6426 16.127 70.4902 16.2949C70.3418 16.4629 70.2676 16.707 70.2676 17.0273V17.6367H71.6738V18.6387H70.2793V24H69.0078ZM75.5527 24.123C74.9316 24.123 74.3945 23.9902 73.9414 23.7246C73.4922 23.459 73.1465 23.0801 72.9043 22.5879C72.6621 22.0918 72.541 21.5039 72.541 20.8242V20.8125C72.541 20.1289 72.6621 19.541 72.9043 19.0488C73.1504 18.5566 73.498 18.1777 73.9473 17.9121C74.4004 17.6465 74.9355 17.5137 75.5527 17.5137C76.1738 17.5137 76.709 17.6465 77.1582 17.9121C77.6074 18.1738 77.9531 18.5527 78.1953 19.0488C78.4414 19.541 78.5645 20.1289 78.5645 20.8125V20.8242C78.5645 21.5039 78.4414 22.0918 78.1953 22.5879C77.9531 23.0801 77.6074 23.459 77.1582 23.7246C76.7129 23.9902 76.1777 24.123 75.5527 24.123ZM75.5527 23.0566C75.916 23.0566 76.2246 22.9688 76.4785 22.793C76.7324 22.6133 76.9258 22.3574 77.0586 22.0254C77.1914 21.6934 77.2578 21.293 77.2578 20.8242V20.8125C77.2578 20.3398 77.1914 19.9375 77.0586 19.6055C76.9258 19.2734 76.7324 19.0195 76.4785 18.8438C76.2246 18.6641 75.916 18.5742 75.5527 18.5742C75.1895 18.5742 74.8809 18.6641 74.627 18.8438C74.373 19.0195 74.1777 19.2734 74.041 19.6055C73.9082 19.9375 73.8418 20.3398 73.8418 20.8125V20.8242C73.8418 21.293 73.9082 21.6934 74.041 22.0254C74.1777 22.3574 74.373 22.6133 74.627 22.793C74.8809 22.9688 75.1895 23.0566 75.5527 23.0566ZM80.1348 24V15.1406H81.4062V24H80.1348ZM83.3164 24V17.6367H84.5938V24H83.3164ZM83.9609 16.5C83.7422 16.5 83.5547 16.4219 83.3984 16.2656C83.2422 16.1094 83.1641 15.9219 83.1641 15.7031C83.1641 15.4844 83.2422 15.2988 83.3984 15.1465C83.5547 14.9902 83.7422 14.9121 83.9609 14.9121C84.1797 14.9121 84.3672 14.9902 84.5234 15.1465C84.6797 15.2988 84.7578 15.4844 84.7578 15.7031C84.7578 15.9219 84.6797 16.1094 84.5234 16.2656C84.3672 16.4219 84.1797 16.5 83.9609 16.5ZM89.1348 24.123C88.5137 24.123 87.9766 23.9902 87.5234 23.7246C87.0742 23.459 86.7285 23.0801 86.4863 22.5879C86.2441 22.0918 86.123 21.5039 86.123 20.8242V20.8125C86.123 20.1289 86.2441 19.541 86.4863 19.0488C86.7324 18.5566 87.0801 18.1777 87.5293 17.9121C87.9824 17.6465 88.5176 17.5137 89.1348 17.5137C89.7559 17.5137 90.291 17.6465 90.7402 17.9121C91.1895 18.1738 91.5352 18.5527 91.7773 19.0488C92.0234 19.541 92.1465 20.1289 92.1465 20.8125V20.8242C92.1465 21.5039 92.0234 22.0918 91.7773 22.5879C91.5352 23.0801 91.1895 23.459 90.7402 23.7246C90.2949 23.9902 89.7598 24.123 89.1348 24.123ZM89.1348 23.0566C89.498 23.0566 89.8066 22.9688 90.0605 22.793C90.3145 22.6133 90.5078 22.3574 90.6406 22.0254C90.7734 21.6934 90.8398 21.293 90.8398 20.8242V20.8125C90.8398 20.3398 90.7734 19.9375 90.6406 19.6055C90.5078 19.2734 90.3145 19.0195 90.0605 18.8438C89.8066 18.6641 89.498 18.5742 89.1348 18.5742C88.7715 18.5742 88.4629 18.6641 88.209 18.8438C87.9551 19.0195 87.7598 19.2734 87.623 19.6055C87.4902 19.9375 87.4238 20.3398 87.4238 20.8125V20.8242C87.4238 21.293 87.4902 21.6934 87.623 22.0254C87.7598 22.3574 87.9551 22.6133 88.209 22.793C88.4629 22.9688 88.7715 23.0566 89.1348 23.0566Z" fill="black" fill-opacity="0.5"/>
<rect x="41" y="29" width="54" height="16" rx="2" fill="black" fill-opacity="0.05"/>
<path d="M130.922 24.2051C130.141 24.2051 129.463 24.0254 128.889 23.666C128.318 23.3066 127.879 22.7969 127.57 22.1367C127.262 21.4766 127.107 20.6914 127.107 19.7812V19.7695C127.107 18.8555 127.262 18.0684 127.57 17.4082C127.879 16.748 128.318 16.2383 128.889 15.8789C129.459 15.5195 130.137 15.3398 130.922 15.3398C131.543 15.3398 132.104 15.4629 132.604 15.709C133.107 15.9512 133.52 16.2871 133.84 16.7168C134.164 17.1465 134.361 17.6406 134.432 18.1992V18.2344H133.125L133.119 18.2109C133.041 17.8633 132.898 17.5625 132.691 17.3086C132.484 17.0547 132.23 16.8574 131.93 16.7168C131.629 16.5762 131.293 16.5059 130.922 16.5059C130.418 16.5059 129.98 16.6387 129.609 16.9043C129.242 17.1699 128.957 17.5469 128.754 18.0352C128.555 18.5195 128.455 19.0977 128.455 19.7695V19.7812C128.455 20.4453 128.555 21.0215 128.754 21.5098C128.957 21.998 129.242 22.375 129.609 22.6406C129.98 22.9062 130.42 23.0391 130.928 23.0391C131.299 23.0391 131.635 22.9766 131.936 22.8516C132.24 22.7266 132.494 22.5488 132.697 22.3184C132.9 22.084 133.039 21.8086 133.113 21.4922L133.125 21.4688H134.438L134.432 21.498C134.35 22.041 134.15 22.5156 133.834 22.9219C133.518 23.3281 133.111 23.6445 132.615 23.8711C132.119 24.0938 131.555 24.2051 130.922 24.2051ZM137.76 24.1055C137.357 24.1055 136.996 24.0293 136.676 23.877C136.359 23.7207 136.109 23.5 135.926 23.2148C135.742 22.9297 135.65 22.5957 135.65 22.2129V22.2012C135.65 21.8184 135.742 21.4922 135.926 21.2227C136.113 20.9531 136.383 20.7422 136.734 20.5898C137.09 20.4336 137.52 20.3398 138.023 20.3086L140.373 20.168V21.0645L138.199 21.2051C137.762 21.2324 137.439 21.3262 137.232 21.4863C137.025 21.6426 136.922 21.8633 136.922 22.1484V22.1602C136.922 22.4492 137.033 22.6777 137.256 22.8457C137.479 23.0098 137.76 23.0918 138.1 23.0918C138.416 23.0918 138.697 23.0293 138.943 22.9043C139.193 22.7754 139.389 22.6035 139.529 22.3887C139.67 22.1699 139.74 21.9238 139.74 21.6504V19.6465C139.74 19.2949 139.631 19.0273 139.412 18.8438C139.197 18.6562 138.877 18.5625 138.451 18.5625C138.096 18.5625 137.805 18.625 137.578 18.75C137.355 18.875 137.207 19.0508 137.133 19.2773L137.121 19.2949H135.896L135.902 19.2539C135.953 18.9023 136.092 18.5977 136.318 18.3398C136.549 18.0781 136.85 17.875 137.221 17.7305C137.596 17.5859 138.023 17.5137 138.504 17.5137C139.039 17.5137 139.492 17.5996 139.863 17.7715C140.238 17.9395 140.521 18.1836 140.713 18.5039C140.908 18.8203 141.006 19.2012 141.006 19.6465V24H139.74V23.0977H139.646C139.521 23.3125 139.365 23.4961 139.178 23.6484C138.99 23.7969 138.777 23.9102 138.539 23.9883C138.301 24.0664 138.041 24.1055 137.76 24.1055ZM145.113 24.123C144.602 24.123 144.156 24.0488 143.777 23.9004C143.398 23.748 143.098 23.5391 142.875 23.2734C142.652 23.0039 142.521 22.6914 142.482 22.3359V22.3242H143.76V22.3359C143.842 22.5742 143.998 22.7676 144.229 22.916C144.459 23.0645 144.764 23.1387 145.143 23.1387C145.404 23.1387 145.633 23.1016 145.828 23.0273C146.027 22.9531 146.184 22.8496 146.297 22.7168C146.41 22.584 146.467 22.4316 146.467 22.2598V22.248C146.467 22.0488 146.387 21.8809 146.227 21.7441C146.066 21.6074 145.803 21.4961 145.436 21.4102L144.416 21.1758C144.018 21.0859 143.688 20.9629 143.426 20.8066C143.164 20.6504 142.971 20.459 142.846 20.2324C142.721 20.002 142.658 19.7324 142.658 19.4238V19.418C142.658 19.0469 142.764 18.7188 142.975 18.4336C143.186 18.1445 143.477 17.9199 143.848 17.7598C144.223 17.5957 144.65 17.5137 145.131 17.5137C145.615 17.5137 146.037 17.5898 146.396 17.7422C146.76 17.8906 147.047 18.0977 147.258 18.3633C147.469 18.625 147.594 18.9297 147.633 19.2773V19.2832H146.414V19.2715C146.355 19.0488 146.215 18.8633 145.992 18.7148C145.773 18.5664 145.484 18.4922 145.125 18.4922C144.895 18.4922 144.689 18.5293 144.51 18.6035C144.33 18.6738 144.188 18.7734 144.082 18.9023C143.98 19.0273 143.93 19.1758 143.93 19.3477V19.3594C143.93 19.4922 143.963 19.6094 144.029 19.7109C144.1 19.8086 144.209 19.8965 144.357 19.9746C144.506 20.0488 144.697 20.1152 144.932 20.1738L145.945 20.4023C146.555 20.5469 147.008 20.7559 147.305 21.0293C147.605 21.3027 147.756 21.6699 147.756 22.1309V22.1426C147.756 22.5332 147.641 22.8789 147.41 23.1797C147.18 23.4766 146.865 23.709 146.467 23.877C146.072 24.041 145.621 24.123 145.113 24.123ZM149.326 24V15.1406H150.598V18.5977H150.697C150.854 18.2578 151.084 17.9922 151.389 17.8008C151.693 17.6094 152.078 17.5137 152.543 17.5137C153.016 17.5137 153.416 17.6055 153.744 17.7891C154.072 17.9727 154.322 18.2422 154.494 18.5977C154.666 18.9492 154.752 19.377 154.752 19.8809V24H153.475V20.1797C153.475 19.6484 153.363 19.2539 153.141 18.9961C152.922 18.7344 152.578 18.6035 152.109 18.6035C151.801 18.6035 151.533 18.6719 151.307 18.8086C151.08 18.9414 150.904 19.1328 150.779 19.3828C150.658 19.6289 150.598 19.9238 150.598 20.2676V24H149.326Z" fill="black" fill-opacity="0.5"/>
<rect x="114" y="29" width="54" height="16" rx="2" fill="black" fill-opacity="0.05"/>
<rect x="311" y="20" width="1" height="18" fill="black" fill-opacity="0.1"/>
<rect x="324.5" y="9.5" width="63" height="39" rx="19.5" stroke="black" stroke-opacity="0.1"/>
<rect x="330" y="15" width="28" height="28" rx="14" fill="black" fill-opacity="0.05"/>
<path d="M364 31L368 27L372 31" stroke="black" stroke-opacity="0.1"/>
<path d="M182.717 159.111V158.01H185.025C185.596 158.01 186.037 157.863 186.35 157.57C186.666 157.273 186.824 156.863 186.824 156.34V156.328C186.824 155.797 186.666 155.385 186.35 155.092C186.037 154.799 185.596 154.652 185.025 154.652H182.717V153.545H185.354C185.908 153.545 186.395 153.662 186.812 153.896C187.234 154.127 187.564 154.451 187.803 154.869C188.041 155.283 188.16 155.766 188.16 156.316V156.328C188.16 156.879 188.041 157.365 187.803 157.787C187.564 158.205 187.234 158.531 186.812 158.766C186.395 158.996 185.908 159.111 185.354 159.111H182.717ZM182.061 162V153.545H183.373V162H182.061ZM189.707 162V155.637H190.979V156.598H191.078C191.191 156.258 191.391 155.994 191.676 155.807C191.965 155.619 192.32 155.525 192.742 155.525C192.848 155.525 192.951 155.531 193.053 155.543C193.154 155.555 193.236 155.568 193.299 155.584V156.756C193.186 156.732 193.072 156.715 192.959 156.703C192.85 156.691 192.734 156.686 192.613 156.686C192.289 156.686 192.004 156.748 191.758 156.873C191.516 156.998 191.324 157.174 191.184 157.4C191.047 157.623 190.979 157.889 190.979 158.197V162H189.707ZM197.055 162.123C196.434 162.123 195.896 161.99 195.443 161.725C194.994 161.459 194.648 161.08 194.406 160.588C194.164 160.092 194.043 159.504 194.043 158.824V158.812C194.043 158.129 194.164 157.541 194.406 157.049C194.652 156.557 195 156.178 195.449 155.912C195.902 155.646 196.438 155.514 197.055 155.514C197.676 155.514 198.211 155.646 198.66 155.912C199.109 156.174 199.455 156.553 199.697 157.049C199.943 157.541 200.066 158.129 200.066 158.812V158.824C200.066 159.504 199.943 160.092 199.697 160.588C199.455 161.08 199.109 161.459 198.66 161.725C198.215 161.99 197.68 162.123 197.055 162.123ZM197.055 161.057C197.418 161.057 197.727 160.969 197.98 160.793C198.234 160.613 198.428 160.357 198.561 160.025C198.693 159.693 198.76 159.293 198.76 158.824V158.812C198.76 158.34 198.693 157.938 198.561 157.605C198.428 157.273 198.234 157.02 197.98 156.844C197.727 156.664 197.418 156.574 197.055 156.574C196.691 156.574 196.383 156.664 196.129 156.844C195.875 157.02 195.68 157.273 195.543 157.605C195.41 157.938 195.344 158.34 195.344 158.812V158.824C195.344 159.293 195.41 159.693 195.543 160.025C195.68 160.357 195.875 160.613 196.129 160.793C196.383 160.969 196.691 161.057 197.055 161.057ZM202.029 162V156.639H200.98V155.637H202.029V154.969C202.029 154.543 202.1 154.191 202.24 153.914C202.385 153.633 202.604 153.424 202.896 153.287C203.189 153.15 203.559 153.082 204.004 153.082C204.145 153.082 204.275 153.088 204.396 153.1C204.521 153.107 204.641 153.121 204.754 153.141V154.078C204.695 154.066 204.623 154.059 204.537 154.055C204.455 154.047 204.365 154.043 204.268 154.043C203.916 154.043 203.664 154.127 203.512 154.295C203.363 154.463 203.289 154.707 203.289 155.027V155.637H204.695V156.639H203.301V162H202.029ZM206.143 162V155.637H207.42V162H206.143ZM206.787 154.5C206.568 154.5 206.381 154.422 206.225 154.266C206.068 154.109 205.99 153.922 205.99 153.703C205.99 153.484 206.068 153.299 206.225 153.146C206.381 152.99 206.568 152.912 206.787 152.912C207.006 152.912 207.193 152.99 207.35 153.146C207.506 153.299 207.584 153.484 207.584 153.703C207.584 153.922 207.506 154.109 207.35 154.266C207.193 154.422 207.006 154.5 206.787 154.5ZM209.324 162V153.141H210.596V162H209.324ZM215.16 162.123C214.539 162.123 214.006 161.99 213.561 161.725C213.115 161.455 212.771 161.074 212.529 160.582C212.291 160.09 212.172 159.508 212.172 158.836V158.83C212.172 158.166 212.291 157.586 212.529 157.09C212.771 156.594 213.111 156.207 213.549 155.93C213.99 155.652 214.506 155.514 215.096 155.514C215.689 155.514 216.199 155.646 216.625 155.912C217.055 156.178 217.385 156.551 217.615 157.031C217.846 157.508 217.961 158.066 217.961 158.707V159.152H212.816V158.244H217.328L216.719 159.088V158.578C216.719 158.125 216.648 157.75 216.508 157.453C216.371 157.152 216.182 156.928 215.939 156.779C215.697 156.631 215.418 156.557 215.102 156.557C214.785 156.557 214.502 156.635 214.252 156.791C214.006 156.943 213.811 157.17 213.666 157.471C213.525 157.771 213.455 158.141 213.455 158.578V159.088C213.455 159.506 213.525 159.863 213.666 160.16C213.807 160.457 214.006 160.684 214.264 160.84C214.525 160.996 214.834 161.074 215.189 161.074C215.463 161.074 215.697 161.037 215.893 160.963C216.092 160.885 216.254 160.789 216.379 160.676C216.508 160.562 216.596 160.451 216.643 160.342L216.666 160.295H217.896L217.885 160.348C217.83 160.559 217.734 160.77 217.598 160.98C217.461 161.188 217.279 161.377 217.053 161.549C216.83 161.721 216.561 161.859 216.244 161.965C215.932 162.07 215.57 162.123 215.16 162.123Z" fill="black" fill-opacity="0.5"/>
<path d="M184.92 200.205C184.283 200.205 183.729 200.105 183.256 199.906C182.783 199.703 182.41 199.422 182.137 199.062C181.863 198.703 181.707 198.287 181.668 197.814L181.662 197.738H182.957L182.963 197.803C182.99 198.057 183.09 198.277 183.262 198.465C183.438 198.652 183.672 198.799 183.965 198.904C184.262 199.01 184.6 199.062 184.979 199.062C185.334 199.062 185.65 199.006 185.928 198.893C186.205 198.779 186.422 198.623 186.578 198.424C186.738 198.225 186.818 197.996 186.818 197.738V197.732C186.818 197.408 186.695 197.139 186.449 196.924C186.203 196.709 185.801 196.541 185.242 196.42L184.316 196.227C183.461 196.043 182.838 195.752 182.447 195.354C182.057 194.951 181.861 194.438 181.861 193.812V193.807C181.865 193.318 181.996 192.889 182.254 192.518C182.516 192.146 182.877 191.857 183.338 191.65C183.799 191.443 184.328 191.34 184.926 191.34C185.523 191.34 186.045 191.443 186.49 191.65C186.939 191.854 187.293 192.131 187.551 192.482C187.812 192.834 187.959 193.23 187.99 193.672L187.996 193.748H186.713L186.701 193.672C186.666 193.441 186.57 193.236 186.414 193.057C186.262 192.877 186.057 192.736 185.799 192.635C185.545 192.529 185.248 192.479 184.908 192.482C184.58 192.482 184.287 192.533 184.029 192.635C183.771 192.732 183.566 192.875 183.414 193.062C183.266 193.25 183.191 193.477 183.191 193.742V193.748C183.191 194.061 183.311 194.322 183.549 194.533C183.791 194.74 184.184 194.902 184.727 195.02L185.652 195.225C186.242 195.35 186.721 195.516 187.088 195.723C187.455 195.93 187.723 196.186 187.891 196.49C188.062 196.791 188.148 197.15 188.148 197.568V197.574C188.148 198.113 188.016 198.58 187.75 198.975C187.488 199.365 187.115 199.668 186.631 199.883C186.146 200.098 185.576 200.205 184.92 200.205ZM192.402 200.123C191.781 200.123 191.248 199.99 190.803 199.725C190.357 199.455 190.014 199.074 189.771 198.582C189.533 198.09 189.414 197.508 189.414 196.836V196.83C189.414 196.166 189.533 195.586 189.771 195.09C190.014 194.594 190.354 194.207 190.791 193.93C191.232 193.652 191.748 193.514 192.338 193.514C192.932 193.514 193.441 193.646 193.867 193.912C194.297 194.178 194.627 194.551 194.857 195.031C195.088 195.508 195.203 196.066 195.203 196.707V197.152H190.059V196.244H194.57L193.961 197.088V196.578C193.961 196.125 193.891 195.75 193.75 195.453C193.613 195.152 193.424 194.928 193.182 194.779C192.939 194.631 192.66 194.557 192.344 194.557C192.027 194.557 191.744 194.635 191.494 194.791C191.248 194.943 191.053 195.17 190.908 195.471C190.768 195.771 190.697 196.141 190.697 196.578V197.088C190.697 197.506 190.768 197.863 190.908 198.16C191.049 198.457 191.248 198.684 191.506 198.84C191.768 198.996 192.076 199.074 192.432 199.074C192.705 199.074 192.939 199.037 193.135 198.963C193.334 198.885 193.496 198.789 193.621 198.676C193.75 198.562 193.838 198.451 193.885 198.342L193.908 198.295H195.139L195.127 198.348C195.072 198.559 194.977 198.77 194.84 198.98C194.703 199.188 194.521 199.377 194.295 199.549C194.072 199.721 193.803 199.859 193.486 199.965C193.174 200.07 192.812 200.123 192.402 200.123ZM199.117 200.041C198.422 200.041 197.918 199.908 197.605 199.643C197.297 199.373 197.143 198.934 197.143 198.324V194.639H196.146V193.637H197.143V192.031H198.443V193.637H199.809V194.639H198.443V198.014C198.443 198.357 198.512 198.605 198.648 198.758C198.785 198.906 199.012 198.98 199.328 198.98C199.422 198.98 199.502 198.979 199.568 198.975C199.639 198.971 199.719 198.965 199.809 198.957V199.977C199.707 199.992 199.598 200.006 199.48 200.018C199.363 200.033 199.242 200.041 199.117 200.041ZM203.723 200.041C203.027 200.041 202.523 199.908 202.211 199.643C201.902 199.373 201.748 198.934 201.748 198.324V194.639H200.752V193.637H201.748V192.031H203.049V193.637H204.414V194.639H203.049V198.014C203.049 198.357 203.117 198.605 203.254 198.758C203.391 198.906 203.617 198.98 203.934 198.98C204.027 198.98 204.107 198.979 204.174 198.975C204.244 198.971 204.324 198.965 204.414 198.957V199.977C204.312 199.992 204.203 200.006 204.086 200.018C203.969 200.033 203.848 200.041 203.723 200.041ZM205.92 200V193.637H207.197V200H205.92ZM206.564 192.5C206.346 192.5 206.158 192.422 206.002 192.266C205.846 192.109 205.768 191.922 205.768 191.703C205.768 191.484 205.846 191.299 206.002 191.146C206.158 190.99 206.346 190.912 206.564 190.912C206.783 190.912 206.971 190.99 207.127 191.146C207.283 191.299 207.361 191.484 207.361 191.703C207.361 191.922 207.283 192.109 207.127 192.266C206.971 192.422 206.783 192.5 206.564 192.5ZM209.043 200V193.637H210.314V194.598H210.414C210.57 194.258 210.801 193.992 211.105 193.801C211.41 193.609 211.795 193.514 212.26 193.514C212.975 193.514 213.521 193.719 213.9 194.129C214.279 194.539 214.469 195.123 214.469 195.881V200H213.191V196.18C213.191 195.648 213.08 195.254 212.857 194.996C212.639 194.734 212.295 194.604 211.826 194.604C211.518 194.604 211.25 194.672 211.023 194.809C210.797 194.941 210.621 195.133 210.496 195.383C210.375 195.629 210.314 195.924 210.314 196.268V200H209.043ZM218.928 202.244C218.389 202.244 217.92 202.17 217.521 202.021C217.127 201.873 216.814 201.666 216.584 201.4C216.354 201.135 216.213 200.826 216.162 200.475L216.168 200.463H217.457L217.463 200.475C217.518 200.693 217.672 200.873 217.926 201.014C218.18 201.154 218.52 201.225 218.945 201.225C219.469 201.225 219.877 201.105 220.17 200.867C220.467 200.629 220.615 200.295 220.615 199.865V198.617H220.516C220.391 198.844 220.23 199.039 220.035 199.203C219.84 199.363 219.617 199.484 219.367 199.566C219.117 199.648 218.846 199.689 218.553 199.689C218.014 199.689 217.545 199.561 217.146 199.303C216.752 199.041 216.447 198.682 216.232 198.225C216.021 197.764 215.916 197.234 215.916 196.637V196.625C215.916 196.02 216.023 195.484 216.238 195.02C216.453 194.551 216.76 194.186 217.158 193.924C217.557 193.658 218.031 193.525 218.582 193.525C218.879 193.525 219.15 193.572 219.396 193.666C219.646 193.76 219.867 193.893 220.059 194.064C220.25 194.236 220.408 194.441 220.533 194.68H220.609V193.637H221.881V199.871C221.881 200.352 221.76 200.77 221.518 201.125C221.279 201.48 220.939 201.756 220.498 201.951C220.057 202.146 219.533 202.244 218.928 202.244ZM218.91 198.635C219.27 198.635 219.578 198.551 219.836 198.383C220.094 198.211 220.291 197.975 220.428 197.674C220.568 197.373 220.639 197.025 220.639 196.631V196.619C220.639 196.229 220.568 195.881 220.428 195.576C220.291 195.271 220.094 195.033 219.836 194.861C219.578 194.689 219.27 194.604 218.91 194.604C218.551 194.604 218.244 194.689 217.99 194.861C217.74 195.033 217.549 195.271 217.416 195.576C217.283 195.877 217.217 196.225 217.217 196.619V196.631C217.217 197.025 217.283 197.373 217.416 197.674C217.549 197.975 217.74 198.211 217.99 198.383C218.244 198.551 218.551 198.635 218.91 198.635ZM226.029 200.123C225.518 200.123 225.072 200.049 224.693 199.9C224.314 199.748 224.014 199.539 223.791 199.273C223.568 199.004 223.438 198.691 223.398 198.336V198.324H224.676V198.336C224.758 198.574 224.914 198.768 225.145 198.916C225.375 199.064 225.68 199.139 226.059 199.139C226.32 199.139 226.549 199.102 226.744 199.027C226.943 198.953 227.1 198.85 227.213 198.717C227.326 198.584 227.383 198.432 227.383 198.26V198.248C227.383 198.049 227.303 197.881 227.143 197.744C226.982 197.607 226.719 197.496 226.352 197.41L225.332 197.176C224.934 197.086 224.604 196.963 224.342 196.807C224.08 196.65 223.887 196.459 223.762 196.232C223.637 196.002 223.574 195.732 223.574 195.424V195.418C223.574 195.047 223.68 194.719 223.891 194.434C224.102 194.145 224.393 193.92 224.764 193.76C225.139 193.596 225.566 193.514 226.047 193.514C226.531 193.514 226.953 193.59 227.312 193.742C227.676 193.891 227.963 194.098 228.174 194.363C228.385 194.625 228.51 194.93 228.549 195.277V195.283H227.33V195.271C227.271 195.049 227.131 194.863 226.908 194.715C226.689 194.566 226.4 194.492 226.041 194.492C225.811 194.492 225.605 194.529 225.426 194.604C225.246 194.674 225.104 194.773 224.998 194.902C224.896 195.027 224.846 195.176 224.846 195.348V195.359C224.846 195.492 224.879 195.609 224.945 195.711C225.016 195.809 225.125 195.896 225.273 195.975C225.422 196.049 225.613 196.115 225.848 196.174L226.861 196.402C227.471 196.547 227.924 196.756 228.221 197.029C228.521 197.303 228.672 197.67 228.672 198.131V198.143C228.672 198.533 228.557 198.879 228.326 199.18C228.096 199.477 227.781 199.709 227.383 199.877C226.988 200.041 226.537 200.123 226.029 200.123Z" fill="black" fill-opacity="0.5"/>
<rect x="162.5" y="51.5" width="223" height="279" rx="5.5" stroke="black" stroke-opacity="0.1"/>
<rect x="163" y="125" width="222" height="1" fill="black" fill-opacity="0.1"/>
<rect x="180" y="71" width="36" height="36" rx="18" fill="black" fill-opacity="0.05"/>
<rect x="223" y="71" width="60" height="16" rx="2" fill="black" fill-opacity="0.05"/>
<g filter="url(#filter0_d_25_3066)">
<path d="M223 101C223 95.4772 227.477 91 233 91H301C306.523 91 311 95.4772 311 101V101C311 106.523 306.523 111 301 111H233C227.477 111 223 106.523 223 101V101Z" fill="url(#paint2_linear_25_3066)"/>
</g>
<path d="M234.904 105.181C234.325 105.181 233.825 105.031 233.405 104.731C232.989 104.429 232.668 104.001 232.443 103.447C232.219 102.894 232.106 102.238 232.106 101.479V101.47C232.106 100.708 232.219 100.052 232.443 99.502C232.668 98.9486 232.989 98.5221 233.405 98.2227C233.825 97.9232 234.325 97.7734 234.904 97.7734C235.487 97.7734 235.987 97.9232 236.403 98.2227C236.82 98.5221 237.141 98.9486 237.365 99.502C237.59 100.052 237.702 100.708 237.702 101.47V101.479C237.702 102.238 237.59 102.894 237.365 103.447C237.141 104.001 236.82 104.429 236.403 104.731C235.987 105.031 235.487 105.181 234.904 105.181ZM234.904 104.014C235.184 104.014 235.42 103.913 235.612 103.711C235.808 103.509 235.956 103.219 236.057 102.842C236.161 102.464 236.213 102.01 236.213 101.479V101.47C236.213 100.936 236.161 100.482 236.057 100.107C235.956 99.7298 235.808 99.4417 235.612 99.2432C235.42 99.0413 235.184 98.9404 234.904 98.9404C234.628 98.9404 234.392 99.0413 234.196 99.2432C234.004 99.4417 233.856 99.7298 233.752 100.107C233.651 100.482 233.601 100.936 233.601 101.47V101.479C233.601 102.01 233.651 102.464 233.752 102.842C233.856 103.219 234.004 103.509 234.196 103.711C234.392 103.913 234.628 104.014 234.904 104.014ZM238.601 105L240.285 102.339L238.586 99.624H240.222L241.174 101.406H241.262L242.214 99.624H243.767L242.072 102.28L243.776 105H242.199L241.193 103.223H241.105L240.104 105H238.601ZM245.827 105.122C245.58 105.122 245.375 105.041 245.212 104.878C245.049 104.715 244.968 104.513 244.968 104.272C244.968 104.032 245.049 103.831 245.212 103.672C245.375 103.509 245.58 103.428 245.827 103.428C246.081 103.428 246.288 103.509 246.447 103.672C246.607 103.831 246.687 104.032 246.687 104.272C246.687 104.513 246.607 104.715 246.447 104.878C246.288 105.041 246.081 105.122 245.827 105.122ZM249.304 105.122C249.056 105.122 248.851 105.041 248.688 104.878C248.526 104.715 248.444 104.513 248.444 104.272C248.444 104.032 248.526 103.831 248.688 103.672C248.851 103.509 249.056 103.428 249.304 103.428C249.558 103.428 249.764 103.509 249.924 103.672C250.083 103.831 250.163 104.032 250.163 104.272C250.163 104.513 250.083 104.715 249.924 104.878C249.764 105.041 249.558 105.122 249.304 105.122ZM252.78 105.122C252.533 105.122 252.328 105.041 252.165 104.878C252.002 104.715 251.921 104.513 251.921 104.272C251.921 104.032 252.002 103.831 252.165 103.672C252.328 103.509 252.533 103.428 252.78 103.428C253.034 103.428 253.241 103.509 253.4 103.672C253.56 103.831 253.64 104.032 253.64 104.272C253.64 104.513 253.56 104.715 253.4 104.878C253.241 105.041 253.034 105.122 252.78 105.122Z" fill="white"/>
<rect x="267.314" y="117" width="16" height="16" rx="1" transform="rotate(45 267.314 117)" fill="#444444"/>
<rect x="219" y="123" width="96" height="24" rx="4" fill="url(#paint3_linear_25_3066)"/>
<path d="M235.867 139.181C235.187 139.181 234.599 139.031 234.104 138.731C233.61 138.432 233.229 138.006 232.962 137.452C232.695 136.899 232.562 136.241 232.562 135.479V135.47C232.562 134.708 232.695 134.05 232.962 133.497C233.229 132.944 233.608 132.519 234.1 132.223C234.594 131.923 235.184 131.773 235.867 131.773C236.424 131.773 236.924 131.882 237.366 132.101C237.812 132.319 238.172 132.62 238.445 133.004C238.719 133.388 238.878 133.827 238.924 134.322V134.386H237.493L237.488 134.352C237.439 134.088 237.34 133.857 237.19 133.658C237.041 133.456 236.852 133.3 236.624 133.189C236.399 133.079 236.147 133.023 235.867 133.023C235.499 133.023 235.18 133.123 234.91 133.321C234.64 133.517 234.432 133.798 234.285 134.166C234.142 134.531 234.07 134.965 234.07 135.47V135.479C234.07 135.981 234.142 136.415 234.285 136.783C234.432 137.151 234.64 137.434 234.91 137.633C235.18 137.831 235.501 137.931 235.872 137.931C236.155 137.931 236.408 137.88 236.629 137.779C236.854 137.675 237.039 137.53 237.186 137.345C237.335 137.156 237.435 136.936 237.483 136.686L237.493 136.642H238.929V136.7C238.877 137.192 238.715 137.623 238.445 137.994C238.175 138.365 237.82 138.657 237.381 138.868C236.941 139.076 236.437 139.181 235.867 139.181ZM242.532 139.112C241.982 139.112 241.508 139.002 241.111 138.78C240.714 138.556 240.41 138.235 240.198 137.818C239.987 137.398 239.881 136.897 239.881 136.314V136.305C239.881 135.725 239.988 135.227 240.203 134.811C240.418 134.394 240.722 134.073 241.116 133.849C241.513 133.621 241.985 133.507 242.532 133.507C243.079 133.507 243.549 133.619 243.943 133.844C244.34 134.068 244.646 134.391 244.861 134.811C245.076 135.227 245.184 135.725 245.184 136.305V136.314C245.184 136.897 245.078 137.398 244.866 137.818C244.655 138.235 244.35 138.556 243.953 138.78C243.559 139.002 243.086 139.112 242.532 139.112ZM242.532 137.994C242.786 137.994 243.001 137.927 243.177 137.794C243.353 137.66 243.488 137.468 243.582 137.218C243.676 136.967 243.724 136.666 243.724 136.314V136.305C243.724 135.953 243.676 135.654 243.582 135.406C243.488 135.156 243.351 134.964 243.172 134.83C242.996 134.693 242.783 134.625 242.532 134.625C242.282 134.625 242.067 134.693 241.888 134.83C241.712 134.964 241.577 135.156 241.482 135.406C241.388 135.654 241.341 135.953 241.341 136.305V136.314C241.341 136.669 241.386 136.972 241.478 137.223C241.572 137.473 241.707 137.665 241.883 137.799C242.062 137.929 242.278 137.994 242.532 137.994ZM246.346 140.782V133.624H247.771V134.454H247.859C247.954 134.262 248.077 134.098 248.23 133.961C248.387 133.824 248.569 133.72 248.777 133.648C248.986 133.574 249.217 133.536 249.471 133.536C249.92 133.536 250.307 133.648 250.633 133.873C250.958 134.098 251.209 134.417 251.385 134.83C251.564 135.24 251.653 135.732 251.653 136.305V136.314C251.653 136.891 251.565 137.385 251.39 137.799C251.214 138.212 250.963 138.53 250.638 138.751C250.312 138.972 249.923 139.083 249.471 139.083C249.223 139.083 248.994 139.046 248.782 138.971C248.574 138.893 248.39 138.784 248.23 138.644C248.074 138.504 247.951 138.336 247.859 138.141H247.771V140.782H246.346ZM248.982 137.901C249.236 137.901 249.453 137.838 249.632 137.711C249.814 137.584 249.954 137.402 250.052 137.164C250.153 136.926 250.203 136.643 250.203 136.314V136.305C250.203 135.976 250.153 135.693 250.052 135.455C249.954 135.217 249.814 135.035 249.632 134.908C249.453 134.781 249.236 134.718 248.982 134.718C248.732 134.718 248.514 134.781 248.328 134.908C248.146 135.035 248.004 135.217 247.903 135.455C247.806 135.689 247.757 135.973 247.757 136.305V136.314C247.757 136.64 247.807 136.923 247.908 137.164C248.009 137.402 248.151 137.584 248.333 137.711C248.519 137.838 248.735 137.901 248.982 137.901ZM253.235 140.895C253.154 140.895 253.069 140.893 252.981 140.89C252.894 140.886 252.807 140.883 252.723 140.88V139.806C252.771 139.812 252.828 139.815 252.894 139.815C252.962 139.819 253.029 139.82 253.094 139.82C253.348 139.82 253.549 139.77 253.699 139.669C253.849 139.568 253.948 139.413 253.997 139.205L254.046 139L252.156 133.624H253.724L255.008 138.263L254.681 137.696H255.105L254.793 138.263L256.077 133.624H257.581L255.75 138.995C255.594 139.467 255.403 139.841 255.179 140.118C254.957 140.398 254.689 140.597 254.373 140.714C254.057 140.834 253.678 140.895 253.235 140.895ZM260.789 139L263.235 131.954H264.49V133.36H264.061L262.337 139H260.789ZM262.098 137.291L262.459 136.188H265.716L266.077 137.291H262.098ZM265.867 139L264.148 133.36V131.954H264.969L267.42 139H265.867ZM270.101 139.083C269.655 139.083 269.267 138.972 268.938 138.751C268.613 138.526 268.361 138.207 268.182 137.794C268.006 137.381 267.918 136.887 267.918 136.314V136.305C267.918 135.729 268.004 135.234 268.177 134.82C268.353 134.407 268.603 134.09 268.929 133.868C269.254 133.647 269.645 133.536 270.101 133.536C270.345 133.536 270.571 133.575 270.779 133.653C270.991 133.728 271.176 133.836 271.336 133.976C271.495 134.116 271.619 134.285 271.707 134.483H271.795V131.568H273.221V139H271.795V138.165H271.707C271.616 138.357 271.492 138.521 271.336 138.658C271.183 138.795 271.002 138.901 270.794 138.976C270.586 139.047 270.354 139.083 270.101 139.083ZM270.584 137.901C270.838 137.901 271.056 137.838 271.238 137.711C271.421 137.584 271.561 137.402 271.658 137.164C271.759 136.926 271.81 136.645 271.81 136.319V136.31C271.81 135.978 271.759 135.694 271.658 135.46C271.561 135.222 271.419 135.04 271.233 134.913C271.051 134.783 270.835 134.718 270.584 134.718C270.337 134.718 270.12 134.783 269.935 134.913C269.752 135.04 269.612 135.222 269.515 135.46C269.417 135.694 269.368 135.976 269.368 136.305V136.314C269.368 136.643 269.417 136.926 269.515 137.164C269.612 137.402 269.752 137.584 269.935 137.711C270.117 137.838 270.333 137.901 270.584 137.901ZM276.614 139.083C276.168 139.083 275.781 138.972 275.452 138.751C275.127 138.526 274.874 138.207 274.695 137.794C274.52 137.381 274.432 136.887 274.432 136.314V136.305C274.432 135.729 274.518 135.234 274.69 134.82C274.866 134.407 275.117 134.09 275.442 133.868C275.768 133.647 276.159 133.536 276.614 133.536C276.858 133.536 277.085 133.575 277.293 133.653C277.505 133.728 277.69 133.836 277.85 133.976C278.009 134.116 278.133 134.285 278.221 134.483H278.309V131.568H279.734V139H278.309V138.165H278.221C278.13 138.357 278.006 138.521 277.85 138.658C277.697 138.795 277.516 138.901 277.308 138.976C277.099 139.047 276.868 139.083 276.614 139.083ZM277.098 137.901C277.352 137.901 277.57 137.838 277.752 137.711C277.934 137.584 278.074 137.402 278.172 137.164C278.273 136.926 278.323 136.645 278.323 136.319V136.31C278.323 135.978 278.273 135.694 278.172 135.46C278.074 135.222 277.933 135.04 277.747 134.913C277.565 134.783 277.348 134.718 277.098 134.718C276.85 134.718 276.634 134.783 276.448 134.913C276.266 135.04 276.126 135.222 276.028 135.46C275.931 135.694 275.882 135.976 275.882 136.305V136.314C275.882 136.643 275.931 136.926 276.028 137.164C276.126 137.402 276.266 137.584 276.448 137.711C276.631 137.838 276.847 137.901 277.098 137.901ZM281.209 139V133.624H282.635V134.459H282.723C282.811 134.166 282.972 133.94 283.206 133.78C283.44 133.618 283.732 133.536 284.08 133.536C284.178 133.536 284.272 133.543 284.363 133.556C284.458 133.569 284.541 133.585 284.612 133.604V134.85C284.505 134.824 284.396 134.804 284.285 134.791C284.178 134.775 284.069 134.767 283.958 134.767C283.688 134.767 283.453 134.817 283.255 134.918C283.056 135.016 282.903 135.156 282.796 135.338C282.688 135.52 282.635 135.738 282.635 135.992V139H281.209ZM287.811 139.112C287.267 139.112 286.798 139 286.404 138.775C286.014 138.548 285.713 138.225 285.501 137.809C285.289 137.392 285.184 136.896 285.184 136.319V136.314C285.184 135.745 285.288 135.25 285.496 134.83C285.708 134.41 286.006 134.085 286.39 133.854C286.777 133.622 287.231 133.507 287.752 133.507C288.276 133.507 288.729 133.619 289.109 133.844C289.49 134.068 289.783 134.382 289.988 134.786C290.193 135.19 290.296 135.663 290.296 136.207V136.651H285.896V135.758H289.612L288.943 136.603V136.031C288.943 135.709 288.893 135.44 288.792 135.226C288.694 135.011 288.558 134.85 288.382 134.742C288.209 134.632 288.007 134.576 287.776 134.576C287.549 134.576 287.345 134.633 287.166 134.747C286.99 134.858 286.85 135.022 286.746 135.24C286.645 135.455 286.595 135.719 286.595 136.031V136.607C286.595 136.91 286.645 137.169 286.746 137.384C286.847 137.599 286.99 137.763 287.176 137.877C287.361 137.991 287.583 138.048 287.84 138.048C288.048 138.048 288.226 138.017 288.372 137.955C288.519 137.893 288.636 137.822 288.724 137.74C288.815 137.656 288.877 137.579 288.909 137.511L288.924 137.481H290.252L290.242 137.53C290.2 137.7 290.123 137.877 290.013 138.062C289.902 138.245 289.749 138.416 289.554 138.575C289.362 138.735 289.121 138.865 288.831 138.966C288.545 139.063 288.204 139.112 287.811 139.112ZM293.602 139.112C293.113 139.112 292.697 139.046 292.352 138.912C292.01 138.775 291.741 138.588 291.546 138.351C291.354 138.113 291.242 137.841 291.209 137.535L291.204 137.516H292.605L292.615 137.535C292.674 137.701 292.785 137.838 292.947 137.945C293.113 138.053 293.336 138.106 293.616 138.106C293.799 138.106 293.958 138.082 294.095 138.033C294.231 137.981 294.339 137.911 294.417 137.823C294.495 137.735 294.534 137.633 294.534 137.516V137.506C294.534 137.363 294.476 137.244 294.358 137.149C294.241 137.055 294.046 136.977 293.772 136.915L292.874 136.725C292.532 136.653 292.247 136.549 292.02 136.412C291.792 136.272 291.621 136.101 291.507 135.899C291.396 135.698 291.341 135.463 291.341 135.196V135.191C291.341 134.853 291.434 134.558 291.619 134.308C291.808 134.054 292.07 133.857 292.405 133.717C292.744 133.577 293.136 133.507 293.582 133.507C294.051 133.507 294.45 133.578 294.778 133.722C295.107 133.862 295.359 134.05 295.535 134.288C295.714 134.522 295.813 134.785 295.833 135.074V135.094H294.51L294.505 135.069C294.466 134.923 294.368 134.794 294.212 134.684C294.056 134.57 293.844 134.513 293.577 134.513C293.414 134.513 293.27 134.537 293.143 134.586C293.016 134.635 292.915 134.703 292.84 134.791C292.768 134.879 292.732 134.983 292.732 135.104V135.108C292.732 135.203 292.757 135.286 292.806 135.357C292.854 135.429 292.934 135.491 293.045 135.543C293.156 135.595 293.304 135.642 293.489 135.685L294.383 135.875C294.92 135.992 295.317 136.168 295.574 136.402C295.831 136.637 295.96 136.952 295.96 137.35V137.354C295.96 137.709 295.859 138.019 295.657 138.282C295.455 138.546 295.177 138.751 294.822 138.897C294.467 139.041 294.061 139.112 293.602 139.112ZM299.168 139.112C298.68 139.112 298.263 139.046 297.918 138.912C297.576 138.775 297.308 138.588 297.112 138.351C296.92 138.113 296.808 137.841 296.775 137.535L296.771 137.516H298.172L298.182 137.535C298.24 137.701 298.351 137.838 298.514 137.945C298.68 138.053 298.903 138.106 299.183 138.106C299.365 138.106 299.524 138.082 299.661 138.033C299.798 137.981 299.905 137.911 299.983 137.823C300.062 137.735 300.101 137.633 300.101 137.516V137.506C300.101 137.363 300.042 137.244 299.925 137.149C299.808 137.055 299.612 136.977 299.339 136.915L298.44 136.725C298.099 136.653 297.814 136.549 297.586 136.412C297.358 136.272 297.187 136.101 297.073 135.899C296.963 135.698 296.907 135.463 296.907 135.196V135.191C296.907 134.853 297 134.558 297.186 134.308C297.374 134.054 297.636 133.857 297.972 133.717C298.31 133.577 298.702 133.507 299.148 133.507C299.617 133.507 300.016 133.578 300.345 133.722C300.674 133.862 300.926 134.05 301.102 134.288C301.281 134.522 301.38 134.785 301.399 135.074V135.094H300.076L300.071 135.069C300.032 134.923 299.935 134.794 299.778 134.684C299.622 134.57 299.41 134.513 299.144 134.513C298.981 134.513 298.836 134.537 298.709 134.586C298.582 134.635 298.481 134.703 298.406 134.791C298.335 134.879 298.299 134.983 298.299 135.104V135.108C298.299 135.203 298.323 135.286 298.372 135.357C298.421 135.429 298.501 135.491 298.611 135.543C298.722 135.595 298.87 135.642 299.056 135.685L299.949 135.875C300.486 135.992 300.883 136.168 301.141 136.402C301.398 136.637 301.526 136.952 301.526 137.35V137.354C301.526 137.709 301.425 138.019 301.224 138.282C301.022 138.546 300.743 138.751 300.389 138.897C300.034 139.041 299.627 139.112 299.168 139.112Z" fill="white"/>
</g>
</g>
<defs>
<filter id="filter0_d_25_3066" x="207" y="79" width="120" height="52" filterUnits="userSpaceOnUse" color-interpolation-filters="sRGB">
<feFlood flood-opacity="0" result="BackgroundImageFix"/>
<feColorMatrix in="SourceAlpha" type="matrix" values="0 0 0 0 0 0 0 0 0 0 0 0 0 0 0 0 0 0 127 0" result="hardAlpha"/>
<feOffset dy="4"/>
<feGaussianBlur stdDeviation="8"/>
<feComposite in2="hardAlpha" operator="out"/>
<feColorMatrix type="matrix" values="0 0 0 0 0.0862745 0 0 0 0 0.321569 0 0 0 0 0.941176 0 0 0 0.2 0"/>
<feBlend mode="normal" in2="BackgroundImageFix" result="effect1_dropShadow_25_3066"/>
<feBlend mode="normal" in="SourceGraphic" in2="effect1_dropShadow_25_3066" result="shape"/>
</filter>
<linearGradient id="paint0_linear_25_3066" x1="200" y1="148" x2="200" y2="200" gradientUnits="userSpaceOnUse">
<stop stop-color="white"/>
<stop offset="0.1875" stop-color="white" stop-opacity="0.240385"/>
<stop offset="1" stop-color="white" stop-opacity="0"/>
</linearGradient>
<linearGradient id="paint1_linear_25_3066" x1="162" y1="100" x2="-1.4559e-06" y2="100" gradientUnits="userSpaceOnUse">
<stop stop-color="white"/>
<stop offset="1" stop-color="white" stop-opacity="0"/>
</linearGradient>
<linearGradient id="paint2_linear_25_3066" x1="267" y1="111" x2="267" y2="91" gradientUnits="userSpaceOnUse">
<stop stop-color="#1652F0"/>
<stop offset="1" stop-color="#4B79F3"/>
</linearGradient>
<linearGradient id="paint3_linear_25_3066" x1="267" y1="147" x2="267" y2="123" gradientUnits="userSpaceOnUse">
<stop stop-color="#222222"/>
<stop offset="1" stop-color="#444444"/>
</linearGradient>
<clipPath id="clip0_25_3066">
<rect width="400" height="200" fill="white"/>
</clipPath>
</defs>
</svg>
